<svg width="1em" height="1em" viewBox="0 0 10 10" fill="none"
    xmlns="http://www.w3.org/2000/svg">
    <path d="M5 0C6.32608 0 7.59785 0.526784 8.53553 1.46447C9.47322 2.40215 10 3.67392 10 5C10 6.32608 9.47322 7.59785 8.53553 8.53553C7.59785 9.47322 6.32608 10 5 10C3.67392 10 2.40215 9.47322 1.46447 8.53553C0.526784 7.59785 0 6.32608 0 5C0 3.67392 0.526784 2.40215 1.46447 1.46447C2.40215 0.526784 3.67392 0 5 0V0ZM2.8125 4.6875C2.72962 4.6875 2.65013 4.72042 2.59153 4.77903C2.53292 4.83763 2.5 4.91712 2.5 5C2.5 5.08288 2.53292 5.16237 2.59153 5.22097C2.65013 5.27958 2.72962 5.3125 2.8125 5.3125H6.43313L5.09125 6.65375C5.06219 6.6828 5.03915 6.7173 5.02342 6.75526C5.0077 6.79322 4.99961 6.83391 4.99961 6.875C4.99961 6.91609 5.0077 6.95678 5.02342 6.99474C5.03915 7.0327 5.06219 7.0672 5.09125 7.09625C5.1203 7.12531 5.1548 7.14835 5.19276 7.16408C5.23072 7.1798 5.27141 7.18789 5.3125 7.18789C5.35359 7.18789 5.39428 7.1798 5.43224 7.16408C5.4702 7.14835 5.5047 7.12531 5.53375 7.09625L7.40875 5.22125C7.43785 5.19222 7.46094 5.15774 7.4767 5.11977C7.49245 5.08181 7.50056 5.0411 7.50056 5C7.50056 4.9589 7.49245 4.91819 7.4767 4.88023C7.46094 4.84226 7.43785 4.80778 7.40875 4.77875L5.53375 2.90375C5.5047 2.87469 5.4702 2.85165 5.43224 2.83592C5.39428 2.8202 5.35359 2.81211 5.3125 2.81211C5.27141 2.81211 5.23072 2.8202 5.19276 2.83592C5.1548 2.85165 5.1203 2.87469 5.09125 2.90375C5.06219 2.9328 5.03915 2.9673 5.02342 3.00526C5.0077 3.04322 4.99961 3.08391 4.99961 3.125C4.99961 3.16609 5.0077 3.20678 5.02342 3.24474C5.03915 3.2827 5.06219 3.3172 5.09125 3.34625L6.43313 4.6875H2.8125Z" fill="var(--text-color)"/>
</svg>
