<svg width="2500" height="714" viewBox="0 0 2500 714" fill="none" xmlns="http://www.w3.org/2000/svg">
<rect x="5" y="5" width="2490" height="704" rx="15" fill="#DFDFDF" stroke="black" stroke-width="10"/>
<rect x="2256.5" y="513.5" width="222" height="194" fill="white" stroke="black" stroke-width="5"/>
<rect x="20.5" y="20.5" width="197" height="117" rx="8.5" fill="#2EB618" stroke="black" stroke-width="3"/>
<rect x="239.5" y="20.5" width="197" height="117" rx="8.5" fill="#2EB618" stroke="black" stroke-width="3"/>
<rect x="458.5" y="20.5" width="197" height="117" rx="8.5" fill="#2EB618" stroke="black" stroke-width="3"/>
<rect x="677.5" y="20.5" width="197" height="117" rx="8.5" fill="#2EB618" stroke="black" stroke-width="3"/>
<rect x="896.5" y="20.5" width="197" height="117" rx="8.5" fill="#2EB618" stroke="black" stroke-width="3"/>
<rect x="1115.5" y="20.5" width="197" height="117" rx="8.5" fill="#2EB618" stroke="black" stroke-width="3"/>
<rect x="1334.5" y="20.5" width="197" height="117" rx="8.5" fill="#2EB618" stroke="black" stroke-width="3"/>
<rect x="1553.5" y="20.5" width="197" height="117" rx="8.5" fill="#2EB618" stroke="black" stroke-width="3"/>
<rect x="1772.5" y="20.5" width="197" height="117" rx="8.5" fill="#2EB618" stroke="black" stroke-width="3"/>
<rect x="1991.5" y="20.5" width="197" height="117" rx="8.5" fill="#2EB618" stroke="black" stroke-width="3"/>
<rect x="2210.5" y="20.5" width="197" height="117" rx="8.5" fill="#FF0000" stroke="black" stroke-width="3"/>
<rect x="20.5" y="159.5" width="197" height="117" rx="8.5" fill="#2EB618" stroke="black" stroke-width="3"/>
<rect x="239.5" y="159.5" width="197" height="117" rx="8.5" fill="#2EB618" stroke="black" stroke-width="3"/>
<rect x="458.5" y="159.5" width="197" height="117" rx="8.5" fill="#2EB618" stroke="black" stroke-width="3"/>
<rect x="677.5" y="159.5" width="197" height="117" rx="8.5" fill="#2EB618" stroke="black" stroke-width="3"/>
<rect x="896.5" y="159.5" width="197" height="117" rx="8.5" fill="#2EB618" stroke="black" stroke-width="3"/>
<rect x="1115.5" y="159.5" width="197" height="117" rx="8.5" fill="#2EB618" stroke="black" stroke-width="3"/>
<rect x="1334.5" y="159.5" width="197" height="117" rx="8.5" fill="#2EB618" stroke="black" stroke-width="3"/>
<rect x="1553.5" y="159.5" width="197" height="117" rx="8.5" fill="#2EB618" stroke="black" stroke-width="3"/>
<rect x="1772.5" y="159.5" width="197" height="117" rx="8.5" fill="#2EB618" stroke="black" stroke-width="3"/>
<rect x="1991.5" y="159.5" width="197" height="117" rx="8.5" fill="#2EB618" stroke="black" stroke-width="3"/>
<rect x="2210.5" y="159.5" width="197" height="117" rx="8.5" fill="#FF0000" stroke="black" stroke-width="3"/>
<rect x="20.5" y="437.5" width="197" height="117" rx="8.5" fill="#2EB618" stroke="black" stroke-width="3"/>
<rect x="20.5" y="298.5" width="197" height="117" rx="8.5" fill="#2EB618" stroke="black" stroke-width="3"/>
<rect x="239.5" y="437.5" width="197" height="117" rx="8.5" fill="#2EB618" stroke="black" stroke-width="3"/>
<rect x="458.5" y="437.5" width="197" height="117" rx="8.5" fill="#2EB618" stroke="black" stroke-width="3"/>
<rect x="677.5" y="437.5" width="197" height="117" rx="8.5" fill="#2EB618" stroke="black" stroke-width="3"/>
<rect x="896.5" y="437.5" width="197" height="117" rx="8.5" fill="#2EB618" stroke="black" stroke-width="3"/>
<rect x="1115.5" y="437.5" width="197" height="117" rx="8.5" fill="#2EB618" stroke="black" stroke-width="3"/>
<rect x="1334.5" y="437.5" width="197" height="117" rx="8.5" fill="#2EB618" stroke="black" stroke-width="3"/>
<rect x="1553.5" y="437.5" width="197" height="117" rx="8.5" fill="#2EB618" stroke="black" stroke-width="3"/>
<rect x="1772.5" y="437.5" width="197" height="117" rx="8.5" fill="#2EB618" stroke="black" stroke-width="3"/>
<rect x="1991.5" y="437.5" width="197" height="117" rx="8.5" fill="#FF0000" stroke="black" stroke-width="3"/>
<rect x="20.5" y="576.5" width="197" height="117" rx="8.5" fill="#2EB618" stroke="black" stroke-width="3"/>
<rect x="239.5" y="576.5" width="197" height="117" rx="8.5" fill="#2EB618" stroke="black" stroke-width="3"/>
<rect x="458.5" y="576.5" width="197" height="117" rx="8.5" fill="#2EB618" stroke="black" stroke-width="3"/>
<rect x="677.5" y="576.5" width="197" height="117" rx="8.5" fill="#2EB618" stroke="black" stroke-width="3"/>
<rect x="896.5" y="576.5" width="197" height="117" rx="8.5" fill="#2EB618" stroke="black" stroke-width="3"/>
<rect x="1115.5" y="576.5" width="197" height="117" rx="8.5" fill="#2EB618" stroke="black" stroke-width="3"/>
<rect x="1334.5" y="576.5" width="197" height="117" rx="8.5" fill="#2EB618" stroke="black" stroke-width="3"/>
<rect x="1553.5" y="576.5" width="197" height="117" rx="8.5" fill="#2EB618" stroke="black" stroke-width="3"/>
<rect x="1772.5" y="576.5" width="197" height="117" rx="8.5" fill="#2EB618" stroke="black" stroke-width="3"/>
<rect x="1991.5" y="576.5" width="197" height="117" rx="8.5" fill="#2EB618" stroke="black" stroke-width="3"/>
<path d="M2096.45 671H2087.75V610.795L2072.81 617.484V609.281L2095.08 599.564H2096.45V671Z" fill="white"/>
<path d="M2110.46 254H2070.71V247.506L2090.98 220.65C2094.04 216.516 2096.15 213.131 2097.32 210.494C2098.53 207.825 2099.13 205.009 2099.13 202.047C2099.13 198.271 2098.25 195.211 2096.49 192.867C2094.74 190.523 2092.43 189.352 2089.56 189.352C2085.95 189.352 2083.15 190.605 2081.16 193.111C2079.21 195.585 2078.23 199.166 2078.23 203.854H2069.59C2069.59 197.311 2071.38 192.021 2074.96 187.984C2078.54 183.948 2083.41 181.93 2089.56 181.93C2095.22 181.93 2099.68 183.671 2102.94 187.154C2106.19 190.605 2107.82 195.211 2107.82 200.973C2107.82 208.004 2104.16 216.321 2096.84 225.924L2081.02 246.627H2110.46V254Z" fill="white"/>
<path d="M2081.75 75.0586H2087.27C2090.81 75.0586 2093.55 73.9681 2095.47 71.7871C2097.39 69.6061 2098.35 66.6276 2098.35 62.8516C2098.35 54.5182 2095.13 50.3516 2088.68 50.3516C2085.59 50.3516 2083.16 51.4746 2081.41 53.7207C2079.65 55.9668 2078.77 58.9128 2078.77 62.5586H2070.18C2070.18 56.862 2071.9 52.1745 2075.35 48.4961C2078.83 44.7852 2083.28 42.9297 2088.68 42.9297C2094.28 42.9297 2098.72 44.6875 2102.01 48.2031C2105.3 51.6862 2106.94 56.6341 2106.94 63.0469C2106.94 66.3346 2106.08 69.4108 2104.36 72.2754C2102.66 75.1074 2100.45 77.1908 2097.71 78.5254C2104.42 80.9993 2107.77 86.5495 2107.77 95.1758C2107.77 101.523 2106 106.585 2102.45 110.361C2098.94 114.105 2094.33 115.977 2088.63 115.977C2083 115.977 2078.44 114.202 2074.96 110.654C2071.51 107.074 2069.79 102.272 2069.79 96.25H2078.43C2078.43 100.026 2079.34 103.037 2081.16 105.283C2082.99 107.497 2085.48 108.604 2088.63 108.604C2091.86 108.604 2094.41 107.513 2096.3 105.332C2098.22 103.151 2099.18 99.8307 2099.18 95.3711C2099.18 86.7448 2095.09 82.4316 2086.92 82.4316H2081.75V75.0586Z" fill="white"/>
<path d="M1877.43 647.123H1885.34V654.496H1877.43V671H1868.79V654.496H1841.93V649.174L1868.35 599.906H1877.43V647.123ZM1851.5 647.123H1868.79V613.334L1851.5 647.123Z" fill="white"/>
<path d="M1848.23 496.355L1851.3 460.906H1882.21V469.256H1858.58L1856.92 488.641C1859.85 486.59 1863.01 485.564 1866.39 485.564C1871.93 485.564 1876.27 487.713 1879.43 492.01C1882.59 496.307 1884.17 502.085 1884.17 509.344C1884.17 516.701 1882.44 522.479 1878.99 526.678C1875.57 530.877 1870.87 532.977 1864.88 532.977C1859.54 532.977 1855.19 531.235 1851.84 527.752C1848.49 524.269 1846.57 519.451 1846.08 513.299H1854.19C1854.67 517.368 1855.83 520.444 1857.65 522.527C1859.51 524.578 1861.92 525.604 1864.88 525.604C1868.23 525.604 1870.85 524.155 1872.74 521.258C1874.63 518.328 1875.57 514.389 1875.57 509.441C1875.57 504.786 1874.55 500.994 1872.5 498.064C1870.48 495.135 1867.74 493.67 1864.29 493.67C1861.43 493.67 1859.13 494.419 1857.41 495.916L1855.11 498.211L1848.23 496.355Z" fill="white"/>
<path d="M1874.79 182.857V190.523H1873.38C1867.61 190.654 1863.1 192.607 1859.85 196.383C1856.59 200.126 1854.72 205.774 1854.23 213.326C1857.39 209.355 1861.43 207.369 1866.34 207.369C1871.58 207.369 1875.74 209.534 1878.79 213.863C1881.89 218.16 1883.43 223.808 1883.43 230.807C1883.43 238.261 1881.72 244.153 1878.31 248.482C1874.92 252.812 1870.36 254.977 1864.63 254.977C1858.87 254.977 1854.23 252.421 1850.72 247.311C1847.2 242.2 1845.45 235.413 1845.45 226.949V223.482C1845.45 213.717 1846.5 205.937 1848.62 200.143C1850.74 194.348 1853.84 190.051 1857.95 187.252C1862.08 184.42 1867.21 182.955 1873.33 182.857H1874.79ZM1864.88 214.889C1862.54 214.889 1860.37 215.784 1858.38 217.574C1856.4 219.365 1854.97 221.643 1854.09 224.41V227.975C1854.09 233.736 1855.1 238.44 1857.12 242.086C1859.17 245.699 1861.67 247.506 1864.63 247.506C1867.86 247.506 1870.38 246.025 1872.2 243.062C1874.03 240.068 1874.94 236.129 1874.94 231.246C1874.94 226.428 1874.03 222.506 1872.2 219.479C1870.38 216.419 1867.94 214.889 1864.88 214.889Z" fill="white"/>
<path d="M1883.92 48.9844L1859.46 115H1850.43L1874.84 51.3281H1843.15V43.9062H1883.92V48.9844Z" fill="white"/>
<path d="M1669.29 618.461C1669.29 622.009 1668.49 625.167 1666.89 627.934C1665.33 630.701 1663.21 632.865 1660.54 634.428C1663.7 636.055 1666.18 638.399 1667.97 641.459C1669.76 644.486 1670.65 647.937 1670.65 651.811C1670.65 657.93 1668.91 662.829 1665.43 666.508C1661.98 670.154 1657.39 671.977 1651.66 671.977C1645.93 671.977 1641.32 670.154 1637.84 666.508C1634.39 662.829 1632.66 657.93 1632.66 651.811C1632.66 647.904 1633.54 644.421 1635.3 641.361C1637.09 638.269 1639.52 635.941 1642.58 634.379C1639.91 632.816 1637.81 630.668 1636.28 627.934C1634.75 625.167 1633.98 622.009 1633.98 618.461C1633.98 612.471 1635.59 607.719 1638.82 604.203C1642.07 600.688 1646.35 598.93 1651.66 598.93C1656.93 598.93 1661.18 600.671 1664.4 604.154C1667.66 607.637 1669.29 612.406 1669.29 618.461ZM1662.01 651.615C1662.01 647.546 1661.05 644.291 1659.13 641.85C1657.21 639.376 1654.69 638.139 1651.56 638.139C1648.37 638.139 1645.85 639.376 1643.99 641.85C1642.17 644.324 1641.26 647.579 1641.26 651.615C1641.26 655.717 1642.15 658.907 1643.94 661.186C1645.77 663.464 1648.34 664.604 1651.66 664.604C1654.98 664.604 1657.53 663.464 1659.32 661.186C1661.11 658.907 1662.01 655.717 1662.01 651.615ZM1660.69 618.607C1660.69 614.994 1659.85 612.048 1658.15 609.77C1656.46 607.491 1654.29 606.352 1651.66 606.352C1648.89 606.352 1646.69 607.475 1645.07 609.721C1643.44 611.967 1642.62 614.929 1642.62 618.607C1642.62 622.318 1643.46 625.264 1645.12 627.445C1646.78 629.626 1648.96 630.717 1651.66 630.717C1654.43 630.717 1656.62 629.61 1658.25 627.396C1659.88 625.183 1660.69 622.253 1660.69 618.607Z" fill="white"/>
<path d="M1661.13 501.629C1657.68 506.023 1653.64 508.221 1649.02 508.221C1643.85 508.221 1639.73 506.04 1636.67 501.678C1633.61 497.316 1632.08 491.603 1632.08 484.539C1632.08 477.117 1633.74 471.16 1637.06 466.668C1640.41 462.176 1644.97 459.93 1650.73 459.93C1656.72 459.93 1661.39 462.534 1664.74 467.742C1668.13 472.918 1669.82 480.096 1669.82 489.275V491.961C1669.82 499.839 1669.22 506.219 1668.02 511.102C1666.84 515.984 1665.1 519.923 1662.79 522.918C1660.48 525.913 1657.53 528.191 1653.95 529.754C1650.37 531.284 1645.9 532.049 1640.53 532.049V524.432H1642.04C1648.16 524.301 1652.8 522.446 1655.96 518.865C1659.15 515.252 1660.87 509.507 1661.13 501.629ZM1650.49 500.75C1652.57 500.75 1654.6 499.887 1656.59 498.162C1658.58 496.404 1660.12 494.109 1661.23 491.277V487.469C1661.23 481.577 1660.2 476.775 1658.15 473.064C1656.1 469.321 1653.63 467.449 1650.73 467.449C1647.61 467.449 1645.12 468.995 1643.26 472.088C1641.44 475.148 1640.53 479.135 1640.53 484.051C1640.53 488.966 1641.42 492.986 1643.21 496.111C1645 499.204 1647.43 500.75 1650.49 500.75Z" fill="white"/>
<path d="M1618.45 254H1609.75V193.795L1594.81 200.484V192.281L1617.08 182.564H1618.45V254ZM1680.12 223.678C1680.12 234.16 1678.59 242.005 1675.53 247.213C1672.47 252.389 1667.66 254.977 1661.12 254.977C1654.77 254.977 1650.04 252.486 1646.91 247.506C1643.79 242.525 1642.16 235.038 1642.03 225.045V212.838C1642.03 202.454 1643.56 194.706 1646.62 189.596C1649.71 184.485 1654.51 181.93 1661.02 181.93C1667.44 181.93 1672.17 184.355 1675.23 189.205C1678.32 194.055 1679.95 201.396 1680.12 211.227V223.678ZM1671.47 211.324C1671.47 203.805 1670.64 198.271 1668.98 194.723C1667.32 191.142 1664.67 189.352 1661.02 189.352C1657.48 189.352 1654.87 191.109 1653.21 194.625C1651.55 198.108 1650.69 203.382 1650.62 210.445V225.094C1650.62 232.581 1651.49 238.212 1653.21 241.988C1654.94 245.732 1657.57 247.604 1661.12 247.604C1664.64 247.604 1667.22 245.829 1668.88 242.281C1670.54 238.733 1671.41 233.313 1671.47 226.021V211.324Z" fill="white"/>
<path d="M1618.45 115H1609.75V54.7949L1594.81 61.4844V53.2812L1617.08 43.5645H1618.45V115ZM1667.86 115H1659.17V54.7949L1644.23 61.4844V53.2812L1666.49 43.5645H1667.86V115Z" fill="white"/>
<path d="M1402.45 671H1393.75V610.795L1378.81 617.484V609.281L1401.08 599.564H1402.45V671ZM1465.87 671H1426.13V664.506L1446.39 637.65C1449.45 633.516 1451.57 630.131 1452.74 627.494C1453.94 624.825 1454.54 622.009 1454.54 619.047C1454.54 615.271 1453.67 612.211 1451.91 609.867C1450.15 607.523 1447.84 606.352 1444.97 606.352C1441.36 606.352 1438.56 607.605 1436.58 610.111C1434.62 612.585 1433.65 616.166 1433.65 620.854H1425C1425 614.311 1426.79 609.021 1430.38 604.984C1433.96 600.948 1438.82 598.93 1444.97 598.93C1450.64 598.93 1455.1 600.671 1458.35 604.154C1461.61 607.605 1463.24 612.211 1463.24 617.973C1463.24 625.004 1459.57 633.321 1452.25 642.924L1436.43 663.627H1465.87V671Z" fill="white"/>
<path d="M1402.45 532H1393.75V471.795L1378.81 478.484V470.281L1401.08 460.564H1402.45V532ZM1437.16 492.059H1442.68C1446.23 492.059 1448.96 490.968 1450.88 488.787C1452.8 486.606 1453.76 483.628 1453.76 479.852C1453.76 471.518 1450.54 467.352 1444.1 467.352C1441 467.352 1438.58 468.475 1436.82 470.721C1435.06 472.967 1434.18 475.913 1434.18 479.559H1425.59C1425.59 473.862 1427.32 469.174 1430.77 465.496C1434.25 461.785 1438.69 459.93 1444.1 459.93C1449.69 459.93 1454.14 461.688 1457.43 465.203C1460.71 468.686 1462.36 473.634 1462.36 480.047C1462.36 483.335 1461.49 486.411 1459.77 489.275C1458.08 492.107 1455.86 494.191 1453.13 495.525C1459.83 497.999 1463.19 503.549 1463.19 512.176C1463.19 518.523 1461.41 523.585 1457.87 527.361C1454.35 531.105 1449.74 532.977 1444.05 532.977C1438.42 532.977 1433.86 531.202 1430.38 527.654C1426.92 524.074 1425.2 519.272 1425.2 513.25H1433.84C1433.84 517.026 1434.75 520.037 1436.58 522.283C1438.4 524.497 1440.89 525.604 1444.05 525.604C1447.27 525.604 1449.82 524.513 1451.71 522.332C1453.63 520.151 1454.59 516.831 1454.59 512.371C1454.59 503.745 1450.51 499.432 1442.34 499.432H1437.16V492.059Z" fill="white"/>
<path d="M1402.45 254H1393.75V193.795L1378.81 200.484V192.281L1401.08 182.564H1402.45V254ZM1458.84 230.123H1466.75V237.496H1458.84V254H1450.2V237.496H1423.34V232.174L1449.76 182.906H1458.84V230.123ZM1432.91 230.123H1450.2V196.334L1432.91 230.123Z" fill="white"/>
<path d="M1186.45 671H1177.75V610.795L1162.81 617.484V609.281L1185.08 599.564H1186.45V671ZM1240.21 599.857V607.523H1238.79C1233.03 607.654 1228.52 609.607 1225.26 613.383C1222.01 617.126 1220.14 622.774 1219.65 630.326C1222.81 626.355 1226.84 624.369 1231.76 624.369C1237 624.369 1241.15 626.534 1244.21 630.863C1247.3 635.16 1248.85 640.808 1248.85 647.807C1248.85 655.261 1247.14 661.153 1243.72 665.482C1240.34 669.812 1235.78 671.977 1230.05 671.977C1224.29 671.977 1219.65 669.421 1216.13 664.311C1212.62 659.2 1210.86 652.413 1210.86 643.949V640.482C1210.86 630.717 1211.92 622.937 1214.03 617.143C1216.15 611.348 1219.26 607.051 1223.36 604.252C1227.49 601.42 1232.62 599.955 1238.74 599.857H1240.21ZM1230.29 631.889C1227.95 631.889 1225.78 632.784 1223.8 634.574C1221.81 636.365 1220.38 638.643 1219.5 641.41V644.975C1219.5 650.736 1220.51 655.44 1222.53 659.086C1224.58 662.699 1227.09 664.506 1230.05 664.506C1233.27 664.506 1235.79 663.025 1237.62 660.062C1239.44 657.068 1240.35 653.129 1240.35 648.246C1240.35 643.428 1239.44 639.506 1237.62 636.479C1235.79 633.419 1233.35 631.889 1230.29 631.889Z" fill="white"/>
<path d="M1186.45 532H1177.75V471.795L1162.81 478.484V470.281L1185.08 460.564H1186.45V532ZM1249.34 465.984L1224.87 532H1215.84L1240.25 468.328H1208.56V460.906H1249.34V465.984Z" fill="white"/>
<path d="M1186.45 254H1177.75V193.795L1162.81 200.484V192.281L1185.08 182.564H1186.45V254ZM1246.7 201.461C1246.7 205.009 1245.9 208.167 1244.31 210.934C1242.74 213.701 1240.63 215.865 1237.96 217.428C1241.12 219.055 1243.59 221.399 1245.38 224.459C1247.17 227.486 1248.07 230.937 1248.07 234.811C1248.07 240.93 1246.32 245.829 1242.84 249.508C1239.39 253.154 1234.8 254.977 1229.07 254.977C1223.34 254.977 1218.74 253.154 1215.25 249.508C1211.8 245.829 1210.08 240.93 1210.08 234.811C1210.08 230.904 1210.96 227.421 1212.71 224.361C1214.51 221.269 1216.93 218.941 1219.99 217.379C1217.32 215.816 1215.22 213.668 1213.69 210.934C1212.16 208.167 1211.4 205.009 1211.4 201.461C1211.4 195.471 1213.01 190.719 1216.23 187.203C1219.49 183.688 1223.77 181.93 1229.07 181.93C1234.35 181.93 1238.59 183.671 1241.82 187.154C1245.07 190.637 1246.7 195.406 1246.7 201.461ZM1239.42 234.615C1239.42 230.546 1238.46 227.291 1236.54 224.85C1234.62 222.376 1232.1 221.139 1228.97 221.139C1225.78 221.139 1223.26 222.376 1221.41 224.85C1219.58 227.324 1218.67 230.579 1218.67 234.615C1218.67 238.717 1219.57 241.907 1221.36 244.186C1223.18 246.464 1225.75 247.604 1229.07 247.604C1232.39 247.604 1234.95 246.464 1236.74 244.186C1238.53 241.907 1239.42 238.717 1239.42 234.615ZM1238.11 201.607C1238.11 197.994 1237.26 195.048 1235.57 192.77C1233.87 190.491 1231.71 189.352 1229.07 189.352C1226.31 189.352 1224.11 190.475 1222.48 192.721C1220.85 194.967 1220.04 197.929 1220.04 201.607C1220.04 205.318 1220.87 208.264 1222.53 210.445C1224.19 212.626 1226.37 213.717 1229.07 213.717C1231.84 213.717 1234.04 212.61 1235.66 210.396C1237.29 208.183 1238.11 205.253 1238.11 201.607Z" fill="white"/>
<path d="M984.459 671H944.713V664.506L964.977 637.65C968.036 633.516 970.152 630.131 971.324 627.494C972.529 624.825 973.131 622.009 973.131 619.047C973.131 615.271 972.252 612.211 970.494 609.867C968.736 607.523 966.425 606.352 963.561 606.352C959.947 606.352 957.148 607.605 955.162 610.111C953.209 612.585 952.232 616.166 952.232 620.854H943.59C943.59 614.311 945.38 609.021 948.961 604.984C952.542 600.948 957.408 598.93 963.561 598.93C969.225 598.93 973.684 600.671 976.939 604.154C980.195 607.605 981.822 612.211 981.822 617.973C981.822 625.004 978.16 633.321 970.836 642.924L955.016 663.627H984.459V671ZM1032.12 640.678C1032.12 651.16 1030.59 659.005 1027.53 664.213C1024.47 669.389 1019.66 671.977 1013.12 671.977C1006.77 671.977 1002.04 669.486 998.912 664.506C995.787 659.525 994.16 652.038 994.029 642.045V629.838C994.029 619.454 995.559 611.706 998.619 606.596C1001.71 601.485 1006.51 598.93 1013.02 598.93C1019.44 598.93 1024.17 601.355 1027.23 606.205C1030.32 611.055 1031.95 618.396 1032.12 628.227V640.678ZM1023.47 628.324C1023.47 620.805 1022.64 615.271 1020.98 611.723C1019.32 608.142 1016.67 606.352 1013.02 606.352C1009.48 606.352 1006.87 608.109 1005.21 611.625C1003.55 615.108 1002.69 620.382 1002.62 627.445V642.094C1002.62 649.581 1003.49 655.212 1005.21 658.988C1006.94 662.732 1009.57 664.604 1013.12 664.604C1016.64 664.604 1019.22 662.829 1020.88 659.281C1022.54 655.733 1023.41 650.313 1023.47 643.021V628.324Z" fill="white"/>
<path d="M984.459 532H944.713V525.506L964.977 498.65C968.036 494.516 970.152 491.131 971.324 488.494C972.529 485.825 973.131 483.009 973.131 480.047C973.131 476.271 972.252 473.211 970.494 470.867C968.736 468.523 966.425 467.352 963.561 467.352C959.947 467.352 957.148 468.605 955.162 471.111C953.209 473.585 952.232 477.166 952.232 481.854H943.59C943.59 475.311 945.38 470.021 948.961 465.984C952.542 461.948 957.408 459.93 963.561 459.93C969.225 459.93 973.684 461.671 976.939 465.154C980.195 468.605 981.822 473.211 981.822 478.973C981.822 486.004 978.16 494.321 970.836 503.924L955.016 524.627H984.459V532ZM1019.86 532H1011.17V471.795L996.227 478.484V470.281L1018.49 460.564H1019.86V532Z" fill="white"/>
<path d="M984.459 254H944.713V247.506L964.977 220.65C968.036 216.516 970.152 213.131 971.324 210.494C972.529 207.825 973.131 205.009 973.131 202.047C973.131 198.271 972.252 195.211 970.494 192.867C968.736 190.523 966.425 189.352 963.561 189.352C959.947 189.352 957.148 190.605 955.162 193.111C953.209 195.585 952.232 199.166 952.232 203.854H943.59C943.59 197.311 945.38 192.021 948.961 187.984C952.542 183.948 957.408 181.93 963.561 181.93C969.225 181.93 973.684 183.671 976.939 187.154C980.195 190.605 981.822 195.211 981.822 200.973C981.822 208.004 978.16 216.321 970.836 225.924L955.016 246.627H984.459V254ZM1033.87 254H994.127V247.506L1014.39 220.65C1017.45 216.516 1019.57 213.131 1020.74 210.494C1021.94 207.825 1022.54 205.009 1022.54 202.047C1022.54 198.271 1021.67 195.211 1019.91 192.867C1018.15 190.523 1015.84 189.352 1012.97 189.352C1009.36 189.352 1006.56 190.605 1004.58 193.111C1002.62 195.585 1001.65 199.166 1001.65 203.854H993.004C993.004 197.311 994.794 192.021 998.375 187.984C1001.96 183.948 1006.82 181.93 1012.97 181.93C1018.64 181.93 1023.1 183.671 1026.35 187.154C1029.61 190.605 1031.24 195.211 1031.24 200.973C1031.24 208.004 1027.57 216.321 1020.25 225.924L1004.43 246.627H1033.87V254Z" fill="white"/>
<path d="M768.459 671H728.713V664.506L748.977 637.65C752.036 633.516 754.152 630.131 755.324 627.494C756.529 624.825 757.131 622.009 757.131 619.047C757.131 615.271 756.252 612.211 754.494 609.867C752.736 607.523 750.425 606.352 747.561 606.352C743.947 606.352 741.148 607.605 739.162 610.111C737.209 612.585 736.232 616.166 736.232 620.854H727.59C727.59 614.311 729.38 609.021 732.961 604.984C736.542 600.948 741.408 598.93 747.561 598.93C753.225 598.93 757.684 600.671 760.939 604.154C764.195 607.605 765.822 612.211 765.822 617.973C765.822 625.004 762.16 633.321 754.836 642.924L739.016 663.627H768.459V671ZM810.842 647.123H818.752V654.496H810.842V671H802.199V654.496H775.344V649.174L801.76 599.906H810.842V647.123ZM784.914 647.123H802.199V613.334L784.914 647.123Z" fill="white"/>
<path d="M768.459 532H728.713V525.506L748.977 498.65C752.036 494.516 754.152 491.131 755.324 488.494C756.529 485.825 757.131 483.009 757.131 480.047C757.131 476.271 756.252 473.211 754.494 470.867C752.736 468.523 750.425 467.352 747.561 467.352C743.947 467.352 741.148 468.605 739.162 471.111C737.209 473.585 736.232 477.166 736.232 481.854H727.59C727.59 475.311 729.38 470.021 732.961 465.984C736.542 461.948 741.408 459.93 747.561 459.93C753.225 459.93 757.684 461.671 760.939 465.154C764.195 468.605 765.822 473.211 765.822 478.973C765.822 486.004 762.16 494.321 754.836 503.924L739.016 524.627H768.459V532ZM781.643 496.355L784.719 460.906H815.627V469.256H791.994L790.334 488.641C793.264 486.59 796.421 485.564 799.807 485.564C805.34 485.564 809.686 487.713 812.844 492.01C816.001 496.307 817.58 502.085 817.58 509.344C817.58 516.701 815.855 522.479 812.404 526.678C808.986 530.877 804.283 532.977 798.293 532.977C792.954 532.977 788.609 531.235 785.256 527.752C781.903 524.269 779.982 519.451 779.494 513.299H787.6C788.088 517.368 789.243 520.444 791.066 522.527C792.922 524.578 795.331 525.604 798.293 525.604C801.646 525.604 804.266 524.155 806.154 521.258C808.042 518.328 808.986 514.389 808.986 509.441C808.986 504.786 807.961 500.994 805.91 498.064C803.892 495.135 801.158 493.67 797.707 493.67C794.842 493.67 792.548 494.419 790.822 495.916L788.527 498.211L781.643 496.355Z" fill="white"/>
<path d="M768.459 254H728.713V247.506L748.977 220.65C752.036 216.516 754.152 213.131 755.324 210.494C756.529 207.825 757.131 205.009 757.131 202.047C757.131 198.271 756.252 195.211 754.494 192.867C752.736 190.523 750.425 189.352 747.561 189.352C743.947 189.352 741.148 190.605 739.162 193.111C737.209 195.585 736.232 199.166 736.232 203.854H727.59C727.59 197.311 729.38 192.021 732.961 187.984C736.542 183.948 741.408 181.93 747.561 181.93C753.225 181.93 757.684 183.671 760.939 187.154C764.195 190.605 765.822 195.211 765.822 200.973C765.822 208.004 762.16 216.321 754.836 225.924L739.016 246.627H768.459V254ZM808.205 182.857V190.523H806.789C801.027 190.654 796.519 192.607 793.264 196.383C790.008 200.126 788.137 205.774 787.648 213.326C790.806 209.355 794.842 207.369 799.758 207.369C804.999 207.369 809.149 209.534 812.209 213.863C815.301 218.16 816.848 223.808 816.848 230.807C816.848 238.261 815.139 244.153 811.721 248.482C808.335 252.812 803.778 254.977 798.049 254.977C792.287 254.977 787.648 252.421 784.133 247.311C780.617 242.2 778.859 235.413 778.859 226.949V223.482C778.859 213.717 779.917 205.937 782.033 200.143C784.149 194.348 787.258 190.051 791.359 187.252C795.493 184.42 800.62 182.955 806.74 182.857H808.205ZM798.293 214.889C795.949 214.889 793.785 215.784 791.799 217.574C789.813 219.365 788.381 221.643 787.502 224.41V227.975C787.502 233.736 788.511 238.44 790.529 242.086C792.58 245.699 795.087 247.506 798.049 247.506C801.271 247.506 803.794 246.025 805.617 243.062C807.44 240.068 808.352 236.129 808.352 231.246C808.352 226.428 807.44 222.506 805.617 219.479C803.794 216.419 801.353 214.889 798.293 214.889Z" fill="white"/>
<path d="M768.459 115H728.713V108.506L748.977 81.6504C752.036 77.5163 754.152 74.1309 755.324 71.4941C756.529 68.8249 757.131 66.0091 757.131 63.0469C757.131 59.2708 756.252 56.2109 754.494 53.8672C752.736 51.5234 750.425 50.3516 747.561 50.3516C743.947 50.3516 741.148 51.6048 739.162 54.1113C737.209 56.5853 736.232 60.166 736.232 64.8535H727.59C727.59 58.3105 729.38 53.0208 732.961 48.9844C736.542 44.9479 741.408 42.9297 747.561 42.9297C753.225 42.9297 757.684 44.6712 760.939 48.1543C764.195 51.6048 765.822 56.2109 765.822 61.9727C765.822 69.0039 762.16 77.321 754.836 86.9238L739.016 107.627H768.459V115ZM817.336 48.9844L792.873 115H783.84L808.254 51.3281H776.564V43.9062H817.336V48.9844Z" fill="white"/>
<path d="M552.459 671H512.713V664.506L532.977 637.65C536.036 633.516 538.152 630.131 539.324 627.494C540.529 624.825 541.131 622.009 541.131 619.047C541.131 615.271 540.252 612.211 538.494 609.867C536.736 607.523 534.425 606.352 531.561 606.352C527.947 606.352 525.148 607.605 523.162 610.111C521.209 612.585 520.232 616.166 520.232 620.854H511.59C511.59 614.311 513.38 609.021 516.961 604.984C520.542 600.948 525.408 598.93 531.561 598.93C537.225 598.93 541.684 600.671 544.939 604.154C548.195 607.605 549.822 612.211 549.822 617.973C549.822 625.004 546.16 633.321 538.836 642.924L523.016 663.627H552.459V671ZM598.699 618.461C598.699 622.009 597.902 625.167 596.307 627.934C594.744 630.701 592.628 632.865 589.959 634.428C593.117 636.055 595.59 638.399 597.381 641.459C599.171 644.486 600.066 647.937 600.066 651.811C600.066 657.93 598.325 662.829 594.842 666.508C591.391 670.154 586.801 671.977 581.072 671.977C575.343 671.977 570.737 670.154 567.254 666.508C563.803 662.829 562.078 657.93 562.078 651.811C562.078 647.904 562.957 644.421 564.715 641.361C566.505 638.269 568.93 635.941 571.99 634.379C569.321 632.816 567.221 630.668 565.691 627.934C564.161 625.167 563.396 622.009 563.396 618.461C563.396 612.471 565.008 607.719 568.23 604.203C571.486 600.688 575.766 598.93 581.072 598.93C586.346 598.93 590.594 600.671 593.816 604.154C597.072 607.637 598.699 612.406 598.699 618.461ZM591.424 651.615C591.424 647.546 590.464 644.291 588.543 641.85C586.622 639.376 584.1 638.139 580.975 638.139C577.785 638.139 575.262 639.376 573.406 641.85C571.583 644.324 570.672 647.579 570.672 651.615C570.672 655.717 571.567 658.907 573.357 661.186C575.18 663.464 577.752 664.604 581.072 664.604C584.393 664.604 586.948 663.464 588.738 661.186C590.529 658.907 591.424 655.717 591.424 651.615ZM590.105 618.607C590.105 614.994 589.259 612.048 587.566 609.77C585.874 607.491 583.709 606.352 581.072 606.352C578.305 606.352 576.108 607.475 574.48 609.721C572.853 611.967 572.039 614.929 572.039 618.607C572.039 622.318 572.869 625.264 574.529 627.445C576.189 629.626 578.37 630.717 581.072 630.717C583.839 630.717 586.036 629.61 587.664 627.396C589.292 625.183 590.105 622.253 590.105 618.607Z" fill="white"/>
<path d="M552.459 532H512.713V525.506L532.977 498.65C536.036 494.516 538.152 491.131 539.324 488.494C540.529 485.825 541.131 483.009 541.131 480.047C541.131 476.271 540.252 473.211 538.494 470.867C536.736 468.523 534.425 467.352 531.561 467.352C527.947 467.352 525.148 468.605 523.162 471.111C521.209 473.585 520.232 477.166 520.232 481.854H511.59C511.59 475.311 513.38 470.021 516.961 465.984C520.542 461.948 525.408 459.93 531.561 459.93C537.225 459.93 541.684 461.671 544.939 465.154C548.195 468.605 549.822 473.211 549.822 478.973C549.822 486.004 546.16 494.321 538.836 503.924L523.016 524.627H552.459V532ZM590.545 501.629C587.094 506.023 583.058 508.221 578.436 508.221C573.26 508.221 569.142 506.04 566.082 501.678C563.022 497.316 561.492 491.603 561.492 484.539C561.492 477.117 563.152 471.16 566.473 466.668C569.826 462.176 574.383 459.93 580.145 459.93C586.134 459.93 590.805 462.534 594.158 467.742C597.544 472.918 599.236 480.096 599.236 489.275V491.961C599.236 499.839 598.634 506.219 597.43 511.102C596.258 515.984 594.516 519.923 592.205 522.918C589.894 525.913 586.948 528.191 583.367 529.754C579.786 531.284 575.311 532.049 569.939 532.049V524.432H571.453C577.573 524.301 582.212 522.446 585.369 518.865C588.559 515.252 590.285 509.507 590.545 501.629ZM579.9 500.75C581.984 500.75 584.018 499.887 586.004 498.162C587.99 496.404 589.536 494.109 590.643 491.277V487.469C590.643 481.577 589.617 476.775 587.566 473.064C585.516 469.321 583.042 467.449 580.145 467.449C577.02 467.449 574.529 468.995 572.674 472.088C570.851 475.148 569.939 479.135 569.939 484.051C569.939 488.966 570.835 492.986 572.625 496.111C574.415 499.204 576.84 500.75 579.9 500.75Z" fill="white"/>
<path d="M523.748 214.059H529.266C532.814 214.059 535.548 212.968 537.469 210.787C539.389 208.606 540.35 205.628 540.35 201.852C540.35 193.518 537.127 189.352 530.682 189.352C527.589 189.352 525.164 190.475 523.406 192.721C521.648 194.967 520.77 197.913 520.77 201.559H512.176C512.176 195.862 513.901 191.174 517.352 187.496C520.835 183.785 525.278 181.93 530.682 181.93C536.281 181.93 540.724 183.688 544.012 187.203C547.299 190.686 548.943 195.634 548.943 202.047C548.943 205.335 548.081 208.411 546.355 211.275C544.663 214.107 542.449 216.191 539.715 217.525C546.421 219.999 549.773 225.549 549.773 234.176C549.773 240.523 547.999 245.585 544.451 249.361C540.936 253.105 536.329 254.977 530.633 254.977C525.001 254.977 520.444 253.202 516.961 249.654C513.51 246.074 511.785 241.272 511.785 235.25H520.428C520.428 239.026 521.339 242.037 523.162 244.283C524.985 246.497 527.475 247.604 530.633 247.604C533.855 247.604 536.411 246.513 538.299 244.332C540.219 242.151 541.18 238.831 541.18 234.371C541.18 225.745 537.094 221.432 528.924 221.432H523.748V214.059ZM600.115 223.678C600.115 234.16 598.585 242.005 595.525 247.213C592.465 252.389 587.664 254.977 581.121 254.977C574.773 254.977 570.037 252.486 566.912 247.506C563.787 242.525 562.16 235.038 562.029 225.045V212.838C562.029 202.454 563.559 194.706 566.619 189.596C569.712 184.485 574.513 181.93 581.023 181.93C587.436 181.93 592.173 184.355 595.232 189.205C598.325 194.055 599.952 201.396 600.115 211.227V223.678ZM591.473 211.324C591.473 203.805 590.643 198.271 588.982 194.723C587.322 191.142 584.669 189.352 581.023 189.352C577.475 189.352 574.871 191.109 573.211 194.625C571.551 198.108 570.688 203.382 570.623 210.445V225.094C570.623 232.581 571.486 238.212 573.211 241.988C574.936 245.732 577.573 247.604 581.121 247.604C584.637 247.604 587.225 245.829 588.885 242.281C590.545 238.733 591.408 233.313 591.473 226.021V211.324Z" fill="white"/>
<path d="M523.748 75.0586H529.266C532.814 75.0586 535.548 73.9681 537.469 71.7871C539.389 69.6061 540.35 66.6276 540.35 62.8516C540.35 54.5182 537.127 50.3516 530.682 50.3516C527.589 50.3516 525.164 51.4746 523.406 53.7207C521.648 55.9668 520.77 58.9128 520.77 62.5586H512.176C512.176 56.862 513.901 52.1745 517.352 48.4961C520.835 44.7852 525.278 42.9297 530.682 42.9297C536.281 42.9297 540.724 44.6875 544.012 48.2031C547.299 51.6862 548.943 56.6341 548.943 63.0469C548.943 66.3346 548.081 69.4108 546.355 72.2754C544.663 75.1074 542.449 77.1908 539.715 78.5254C546.421 80.9993 549.773 86.5495 549.773 95.1758C549.773 101.523 547.999 106.585 544.451 110.361C540.936 114.105 536.329 115.977 530.633 115.977C525.001 115.977 520.444 114.202 516.961 110.654C513.51 107.074 511.785 102.272 511.785 96.25H520.428C520.428 100.026 521.339 103.037 523.162 105.283C524.985 107.497 527.475 108.604 530.633 108.604C533.855 108.604 536.411 107.513 538.299 105.332C540.219 103.151 541.18 99.8307 541.18 95.3711C541.18 86.7448 537.094 82.4316 528.924 82.4316H523.748V75.0586ZM587.859 115H579.168V54.7949L564.227 61.4844V53.2812L586.492 43.5645H587.859V115Z" fill="white"/>
<path d="M307.748 631.059H313.266C316.814 631.059 319.548 629.968 321.469 627.787C323.389 625.606 324.35 622.628 324.35 618.852C324.35 610.518 321.127 606.352 314.682 606.352C311.589 606.352 309.164 607.475 307.406 609.721C305.648 611.967 304.77 614.913 304.77 618.559H296.176C296.176 612.862 297.901 608.174 301.352 604.496C304.835 600.785 309.278 598.93 314.682 598.93C320.281 598.93 324.724 600.688 328.012 604.203C331.299 607.686 332.943 612.634 332.943 619.047C332.943 622.335 332.081 625.411 330.355 628.275C328.663 631.107 326.449 633.191 323.715 634.525C330.421 636.999 333.773 642.549 333.773 651.176C333.773 657.523 331.999 662.585 328.451 666.361C324.936 670.105 320.329 671.977 314.633 671.977C309.001 671.977 304.444 670.202 300.961 666.654C297.51 663.074 295.785 658.272 295.785 652.25H304.428C304.428 656.026 305.339 659.037 307.162 661.283C308.985 663.497 311.475 664.604 314.633 664.604C317.855 664.604 320.411 663.513 322.299 661.332C324.219 659.151 325.18 655.831 325.18 651.371C325.18 642.745 321.094 638.432 312.924 638.432H307.748V631.059ZM385.873 671H346.127V664.506L366.391 637.65C369.451 633.516 371.566 630.131 372.738 627.494C373.943 624.825 374.545 622.009 374.545 619.047C374.545 615.271 373.666 612.211 371.908 609.867C370.15 607.523 367.839 606.352 364.975 606.352C361.361 606.352 358.562 607.605 356.576 610.111C354.623 612.585 353.646 616.166 353.646 620.854H345.004C345.004 614.311 346.794 609.021 350.375 604.984C353.956 600.948 358.822 598.93 364.975 598.93C370.639 598.93 375.098 600.671 378.354 604.154C381.609 607.605 383.236 612.211 383.236 617.973C383.236 625.004 379.574 633.321 372.25 642.924L356.43 663.627H385.873V671Z" fill="white"/>
<path d="M307.748 492.059H313.266C316.814 492.059 319.548 490.968 321.469 488.787C323.389 486.606 324.35 483.628 324.35 479.852C324.35 471.518 321.127 467.352 314.682 467.352C311.589 467.352 309.164 468.475 307.406 470.721C305.648 472.967 304.77 475.913 304.77 479.559H296.176C296.176 473.862 297.901 469.174 301.352 465.496C304.835 461.785 309.278 459.93 314.682 459.93C320.281 459.93 324.724 461.688 328.012 465.203C331.299 468.686 332.943 473.634 332.943 480.047C332.943 483.335 332.081 486.411 330.355 489.275C328.663 492.107 326.449 494.191 323.715 495.525C330.421 497.999 333.773 503.549 333.773 512.176C333.773 518.523 331.999 523.585 328.451 527.361C324.936 531.105 320.329 532.977 314.633 532.977C309.001 532.977 304.444 531.202 300.961 527.654C297.51 524.074 295.785 519.272 295.785 513.25H304.428C304.428 517.026 305.339 520.037 307.162 522.283C308.985 524.497 311.475 525.604 314.633 525.604C317.855 525.604 320.411 524.513 322.299 522.332C324.219 520.151 325.18 516.831 325.18 512.371C325.18 503.745 321.094 499.432 312.924 499.432H307.748V492.059ZM357.162 492.059H362.68C366.228 492.059 368.962 490.968 370.883 488.787C372.803 486.606 373.764 483.628 373.764 479.852C373.764 471.518 370.541 467.352 364.096 467.352C361.003 467.352 358.578 468.475 356.82 470.721C355.062 472.967 354.184 475.913 354.184 479.559H345.59C345.59 473.862 347.315 469.174 350.766 465.496C354.249 461.785 358.692 459.93 364.096 459.93C369.695 459.93 374.138 461.688 377.426 465.203C380.714 468.686 382.357 473.634 382.357 480.047C382.357 483.335 381.495 486.411 379.77 489.275C378.077 492.107 375.863 494.191 373.129 495.525C379.835 497.999 383.188 503.549 383.188 512.176C383.188 518.523 381.413 523.585 377.865 527.361C374.35 531.105 369.743 532.977 364.047 532.977C358.415 532.977 353.858 531.202 350.375 527.654C346.924 524.074 345.199 519.272 345.199 513.25H353.842C353.842 517.026 354.753 520.037 356.576 522.283C358.399 524.497 360.889 525.604 364.047 525.604C367.27 525.604 369.825 524.513 371.713 522.332C373.633 520.151 374.594 516.831 374.594 512.371C374.594 503.745 370.508 499.432 362.338 499.432H357.162V492.059Z" fill="white"/>
<path d="M307.748 214.059H313.266C316.814 214.059 319.548 212.968 321.469 210.787C323.389 208.606 324.35 205.628 324.35 201.852C324.35 193.518 321.127 189.352 314.682 189.352C311.589 189.352 309.164 190.475 307.406 192.721C305.648 194.967 304.77 197.913 304.77 201.559H296.176C296.176 195.862 297.901 191.174 301.352 187.496C304.835 183.785 309.278 181.93 314.682 181.93C320.281 181.93 324.724 183.688 328.012 187.203C331.299 190.686 332.943 195.634 332.943 202.047C332.943 205.335 332.081 208.411 330.355 211.275C328.663 214.107 326.449 216.191 323.715 217.525C330.421 219.999 333.773 225.549 333.773 234.176C333.773 240.523 331.999 245.585 328.451 249.361C324.936 253.105 320.329 254.977 314.633 254.977C309.001 254.977 304.444 253.202 300.961 249.654C297.51 246.074 295.785 241.272 295.785 235.25H304.428C304.428 239.026 305.339 242.037 307.162 244.283C308.985 246.497 311.475 247.604 314.633 247.604C317.855 247.604 320.411 246.513 322.299 244.332C324.219 242.151 325.18 238.831 325.18 234.371C325.18 225.745 321.094 221.432 312.924 221.432H307.748V214.059ZM378.842 230.123H386.752V237.496H378.842V254H370.199V237.496H343.344V232.174L369.76 182.906H378.842V230.123ZM352.914 230.123H370.199V196.334L352.914 230.123Z" fill="white"/>
<path d="M307.748 75.0586H313.266C316.814 75.0586 319.548 73.9681 321.469 71.7871C323.389 69.6061 324.35 66.6276 324.35 62.8516C324.35 54.5182 321.127 50.3516 314.682 50.3516C311.589 50.3516 309.164 51.4746 307.406 53.7207C305.648 55.9668 304.77 58.9128 304.77 62.5586H296.176C296.176 56.862 297.901 52.1745 301.352 48.4961C304.835 44.7852 309.278 42.9297 314.682 42.9297C320.281 42.9297 324.724 44.6875 328.012 48.2031C331.299 51.6862 332.943 56.6341 332.943 63.0469C332.943 66.3346 332.081 69.4108 330.355 72.2754C328.663 75.1074 326.449 77.1908 323.715 78.5254C330.421 80.9993 333.773 86.5495 333.773 95.1758C333.773 101.523 331.999 106.585 328.451 110.361C324.936 114.105 320.329 115.977 314.633 115.977C309.001 115.977 304.444 114.202 300.961 110.654C297.51 107.074 295.785 102.272 295.785 96.25H304.428C304.428 100.026 305.339 103.037 307.162 105.283C308.985 107.497 311.475 108.604 314.633 108.604C317.855 108.604 320.411 107.513 322.299 105.332C324.219 103.151 325.18 99.8307 325.18 95.3711C325.18 86.7448 321.094 82.4316 312.924 82.4316H307.748V75.0586ZM349.643 79.3555L352.719 43.9062H383.627V52.2559H359.994L358.334 71.6406C361.264 69.5898 364.421 68.5645 367.807 68.5645C373.34 68.5645 377.686 70.7129 380.844 75.0098C384.001 79.3066 385.58 85.0846 385.58 92.3438C385.58 99.7005 383.855 105.479 380.404 109.678C376.986 113.877 372.283 115.977 366.293 115.977C360.954 115.977 356.609 114.235 353.256 110.752C349.903 107.269 347.982 102.451 347.494 96.2988H355.6C356.088 100.368 357.243 103.444 359.066 105.527C360.922 107.578 363.331 108.604 366.293 108.604C369.646 108.604 372.266 107.155 374.154 104.258C376.042 101.328 376.986 97.3893 376.986 92.4414C376.986 87.7865 375.961 83.9941 373.91 81.0645C371.892 78.1348 369.158 76.6699 365.707 76.6699C362.842 76.6699 360.548 77.4186 358.822 78.916L356.527 81.2109L349.643 79.3555Z" fill="white"/>
<path d="M91.748 631.059H97.2656C100.814 631.059 103.548 629.968 105.469 627.787C107.389 625.606 108.35 622.628 108.35 618.852C108.35 610.518 105.127 606.352 98.6816 606.352C95.5892 606.352 93.1641 607.475 91.4062 609.721C89.6484 611.967 88.7695 614.913 88.7695 618.559H80.1758C80.1758 612.862 81.901 608.174 85.3516 604.496C88.8346 600.785 93.278 598.93 98.6816 598.93C104.281 598.93 108.724 600.688 112.012 604.203C115.299 607.686 116.943 612.634 116.943 619.047C116.943 622.335 116.081 625.411 114.355 628.275C112.663 631.107 110.449 633.191 107.715 634.525C114.421 636.999 117.773 642.549 117.773 651.176C117.773 657.523 115.999 662.585 112.451 666.361C108.936 670.105 104.329 671.977 98.6328 671.977C93.0013 671.977 88.444 670.202 84.9609 666.654C81.5104 663.074 79.7852 658.272 79.7852 652.25H88.4277C88.4277 656.026 89.3392 659.037 91.1621 661.283C92.985 663.497 95.4753 664.604 98.6328 664.604C101.855 664.604 104.411 663.513 106.299 661.332C108.219 659.151 109.18 655.831 109.18 651.371C109.18 642.745 105.094 638.432 96.9238 638.432H91.748V631.059ZM160.205 599.857V607.523H158.789C153.027 607.654 148.519 609.607 145.264 613.383C142.008 617.126 140.137 622.774 139.648 630.326C142.806 626.355 146.842 624.369 151.758 624.369C156.999 624.369 161.149 626.534 164.209 630.863C167.301 635.16 168.848 640.808 168.848 647.807C168.848 655.261 167.139 661.153 163.721 665.482C160.335 669.812 155.778 671.977 150.049 671.977C144.287 671.977 139.648 669.421 136.133 664.311C132.617 659.2 130.859 652.413 130.859 643.949V640.482C130.859 630.717 131.917 622.937 134.033 617.143C136.149 611.348 139.258 607.051 143.359 604.252C147.493 601.42 152.62 599.955 158.74 599.857H160.205ZM150.293 631.889C147.949 631.889 145.785 632.784 143.799 634.574C141.813 636.365 140.381 638.643 139.502 641.41V644.975C139.502 650.736 140.511 655.44 142.529 659.086C144.58 662.699 147.087 664.506 150.049 664.506C153.271 664.506 155.794 663.025 157.617 660.062C159.44 657.068 160.352 653.129 160.352 648.246C160.352 643.428 159.44 639.506 157.617 636.479C155.794 633.419 153.353 631.889 150.293 631.889Z" fill="white"/>
<path d="M91.748 492.059H97.2656C100.814 492.059 103.548 490.968 105.469 488.787C107.389 486.606 108.35 483.628 108.35 479.852C108.35 471.518 105.127 467.352 98.6816 467.352C95.5892 467.352 93.1641 468.475 91.4062 470.721C89.6484 472.967 88.7695 475.913 88.7695 479.559H80.1758C80.1758 473.862 81.901 469.174 85.3516 465.496C88.8346 461.785 93.278 459.93 98.6816 459.93C104.281 459.93 108.724 461.688 112.012 465.203C115.299 468.686 116.943 473.634 116.943 480.047C116.943 483.335 116.081 486.411 114.355 489.275C112.663 492.107 110.449 494.191 107.715 495.525C114.421 497.999 117.773 503.549 117.773 512.176C117.773 518.523 115.999 523.585 112.451 527.361C108.936 531.105 104.329 532.977 98.6328 532.977C93.0013 532.977 88.444 531.202 84.9609 527.654C81.5104 524.074 79.7852 519.272 79.7852 513.25H88.4277C88.4277 517.026 89.3392 520.037 91.1621 522.283C92.985 524.497 95.4753 525.604 98.6328 525.604C101.855 525.604 104.411 524.513 106.299 522.332C108.219 520.151 109.18 516.831 109.18 512.371C109.18 503.745 105.094 499.432 96.9238 499.432H91.748V492.059ZM169.336 465.984L144.873 532H135.84L160.254 468.328H128.564V460.906H169.336V465.984Z" fill="white"/>
<path d="M91.748 353.059H97.2656C100.814 353.059 103.548 351.968 105.469 349.787C107.389 347.606 108.35 344.628 108.35 340.852C108.35 332.518 105.127 328.352 98.6816 328.352C95.5892 328.352 93.1641 329.475 91.4062 331.721C89.6484 333.967 88.7695 336.913 88.7695 340.559H80.1758C80.1758 334.862 81.901 330.174 85.3516 326.496C88.8346 322.785 93.278 320.93 98.6816 320.93C104.281 320.93 108.724 322.688 112.012 326.203C115.299 329.686 116.943 334.634 116.943 341.047C116.943 344.335 116.081 347.411 114.355 350.275C112.663 353.107 110.449 355.191 107.715 356.525C114.421 358.999 117.773 364.549 117.773 373.176C117.773 379.523 115.999 384.585 112.451 388.361C108.936 392.105 104.329 393.977 98.6328 393.977C93.0013 393.977 88.444 392.202 84.9609 388.654C81.5104 385.074 79.7852 380.272 79.7852 374.25H88.4277C88.4277 378.026 89.3392 381.037 91.1621 383.283C92.985 385.497 95.4753 386.604 98.6328 386.604C101.855 386.604 104.411 385.513 106.299 383.332C108.219 381.151 109.18 377.831 109.18 373.371C109.18 364.745 105.094 360.432 96.9238 360.432H91.748V353.059ZM166.699 340.461C166.699 344.009 165.902 347.167 164.307 349.934C162.744 352.701 160.628 354.865 157.959 356.428C161.117 358.055 163.59 360.399 165.381 363.459C167.171 366.486 168.066 369.937 168.066 373.811C168.066 379.93 166.325 384.829 162.842 388.508C159.391 392.154 154.801 393.977 149.072 393.977C143.343 393.977 138.737 392.154 135.254 388.508C131.803 384.829 130.078 379.93 130.078 373.811C130.078 369.904 130.957 366.421 132.715 363.361C134.505 360.269 136.93 357.941 139.99 356.379C137.321 354.816 135.221 352.668 133.691 349.934C132.161 347.167 131.396 344.009 131.396 340.461C131.396 334.471 133.008 329.719 136.23 326.203C139.486 322.688 143.766 320.93 149.072 320.93C154.346 320.93 158.594 322.671 161.816 326.154C165.072 329.637 166.699 334.406 166.699 340.461ZM159.424 373.615C159.424 369.546 158.464 366.291 156.543 363.85C154.622 361.376 152.1 360.139 148.975 360.139C145.785 360.139 143.262 361.376 141.406 363.85C139.583 366.324 138.672 369.579 138.672 373.615C138.672 377.717 139.567 380.907 141.357 383.186C143.18 385.464 145.752 386.604 149.072 386.604C152.393 386.604 154.948 385.464 156.738 383.186C158.529 380.907 159.424 377.717 159.424 373.615ZM158.105 340.607C158.105 336.994 157.259 334.048 155.566 331.77C153.874 329.491 151.709 328.352 149.072 328.352C146.305 328.352 144.108 329.475 142.48 331.721C140.853 333.967 140.039 336.929 140.039 340.607C140.039 344.318 140.869 347.264 142.529 349.445C144.189 351.626 146.37 352.717 149.072 352.717C151.839 352.717 154.036 351.61 155.664 349.396C157.292 347.183 158.105 344.253 158.105 340.607Z" fill="white"/>
<path d="M91.748 214.059H97.2656C100.814 214.059 103.548 212.968 105.469 210.787C107.389 208.606 108.35 205.628 108.35 201.852C108.35 193.518 105.127 189.352 98.6816 189.352C95.5892 189.352 93.1641 190.475 91.4062 192.721C89.6484 194.967 88.7695 197.913 88.7695 201.559H80.1758C80.1758 195.862 81.901 191.174 85.3516 187.496C88.8346 183.785 93.278 181.93 98.6816 181.93C104.281 181.93 108.724 183.688 112.012 187.203C115.299 190.686 116.943 195.634 116.943 202.047C116.943 205.335 116.081 208.411 114.355 211.275C112.663 214.107 110.449 216.191 107.715 217.525C114.421 219.999 117.773 225.549 117.773 234.176C117.773 240.523 115.999 245.585 112.451 249.361C108.936 253.105 104.329 254.977 98.6328 254.977C93.0013 254.977 88.444 253.202 84.9609 249.654C81.5104 246.074 79.7852 241.272 79.7852 235.25H88.4277C88.4277 239.026 89.3392 242.037 91.1621 244.283C92.985 246.497 95.4753 247.604 98.6328 247.604C101.855 247.604 104.411 246.513 106.299 244.332C108.219 242.151 109.18 238.831 109.18 234.371C109.18 225.745 105.094 221.432 96.9238 221.432H91.748V214.059ZM158.545 223.629C155.094 228.023 151.058 230.221 146.436 230.221C141.26 230.221 137.142 228.04 134.082 223.678C131.022 219.316 129.492 213.603 129.492 206.539C129.492 199.117 131.152 193.16 134.473 188.668C137.826 184.176 142.383 181.93 148.145 181.93C154.134 181.93 158.805 184.534 162.158 189.742C165.544 194.918 167.236 202.096 167.236 211.275V213.961C167.236 221.839 166.634 228.219 165.43 233.102C164.258 237.984 162.516 241.923 160.205 244.918C157.894 247.913 154.948 250.191 151.367 251.754C147.786 253.284 143.311 254.049 137.939 254.049V246.432H139.453C145.573 246.301 150.212 244.446 153.369 240.865C156.559 237.252 158.285 231.507 158.545 223.629ZM147.9 222.75C149.984 222.75 152.018 221.887 154.004 220.162C155.99 218.404 157.536 216.109 158.643 213.277V209.469C158.643 203.577 157.617 198.775 155.566 195.064C153.516 191.321 151.042 189.449 148.145 189.449C145.02 189.449 142.529 190.995 140.674 194.088C138.851 197.148 137.939 201.135 137.939 206.051C137.939 210.966 138.835 214.986 140.625 218.111C142.415 221.204 144.84 222.75 147.9 222.75Z" fill="white"/>
<path d="M113.428 91.123H121.338V98.4961H113.428V115H104.785V98.4961H77.9297V93.1738L104.346 43.9062H113.428V91.123ZM87.5 91.123H104.785V57.334L87.5 91.123ZM168.115 84.6777C168.115 95.1595 166.585 103.005 163.525 108.213C160.465 113.389 155.664 115.977 149.121 115.977C142.773 115.977 138.037 113.486 134.912 108.506C131.787 103.525 130.16 96.0384 130.029 86.0449V73.8379C130.029 63.4538 131.559 55.7064 134.619 50.5957C137.712 45.485 142.513 42.9297 149.023 42.9297C155.436 42.9297 160.173 45.3548 163.232 50.2051C166.325 55.0553 167.952 62.3958 168.115 72.2266V84.6777ZM159.473 72.3242C159.473 64.8047 158.643 59.2708 156.982 55.7227C155.322 52.1419 152.669 50.3516 149.023 50.3516C145.475 50.3516 142.871 52.1094 141.211 55.625C139.551 59.1081 138.688 64.3815 138.623 71.4453V86.0938C138.623 93.5807 139.486 99.2122 141.211 102.988C142.936 106.732 145.573 108.604 149.121 108.604C152.637 108.604 155.225 106.829 156.885 103.281C158.545 99.7331 159.408 94.3132 159.473 87.0215V72.3242Z" fill="white"/>
<path d="M2300.75 82.1387H2275.6V107.334H2304.9V115H2266.67V43.9062H2304.41V51.6211H2275.6V74.4727H2300.75V82.1387ZM2340.15 115H2331.46V54.7949L2316.52 61.4844V53.2812L2338.79 43.5645H2340.15V115Z" fill="white"/>
<path d="M2300.75 221.139H2275.6V246.334H2304.9V254H2266.67V182.906H2304.41V190.621H2275.6V213.473H2300.75V221.139ZM2354.17 254H2314.42V247.506L2334.68 220.65C2337.74 216.516 2339.86 213.131 2341.03 210.494C2342.24 207.825 2342.84 205.009 2342.84 202.047C2342.84 198.271 2341.96 195.211 2340.2 192.867C2338.44 190.523 2336.13 189.352 2333.27 189.352C2329.65 189.352 2326.85 190.605 2324.87 193.111C2322.92 195.585 2321.94 199.166 2321.94 203.854H2313.3C2313.3 197.311 2315.09 192.021 2318.67 187.984C2322.25 183.948 2327.12 181.93 2333.27 181.93C2338.93 181.93 2343.39 183.671 2346.65 187.154C2349.9 190.605 2351.53 195.211 2351.53 200.973C2351.53 208.004 2347.87 216.321 2340.54 225.924L2324.72 246.627H2354.17V254Z" fill="white"/>
<path d="M2081.75 499.139H2056.6V524.334H2085.9V532H2047.67V460.906H2085.41V468.621H2056.6V491.473H2081.75V499.139ZM2106.46 492.059H2111.97C2115.52 492.059 2118.26 490.968 2120.18 488.787C2122.1 486.606 2123.06 483.628 2123.06 479.852C2123.06 471.518 2119.83 467.352 2113.39 467.352C2110.3 467.352 2107.87 468.475 2106.11 470.721C2104.36 472.967 2103.48 475.913 2103.48 479.559H2094.88C2094.88 473.862 2096.61 469.174 2100.06 465.496C2103.54 461.785 2107.99 459.93 2113.39 459.93C2118.99 459.93 2123.43 461.688 2126.72 465.203C2130.01 468.686 2131.65 473.634 2131.65 480.047C2131.65 483.335 2130.79 486.411 2129.06 489.275C2127.37 492.107 2125.16 494.191 2122.42 495.525C2129.13 497.999 2132.48 503.549 2132.48 512.176C2132.48 518.523 2130.71 523.585 2127.16 527.361C2123.64 531.105 2119.04 532.977 2113.34 532.977C2107.71 532.977 2103.15 531.202 2099.67 527.654C2096.22 524.074 2094.49 519.272 2094.49 513.25H2103.13C2103.13 517.026 2104.05 520.037 2105.87 522.283C2107.69 524.497 2110.18 525.604 2113.34 525.604C2116.56 525.604 2119.12 524.513 2121.01 522.332C2122.93 520.151 2123.89 516.831 2123.89 512.371C2123.89 503.745 2119.8 499.432 2111.63 499.432H2106.46V492.059Z" fill="white"/>
<path d="M984.459 115H944.713V108.506L964.977 81.6504C968.036 77.5163 970.152 74.1309 971.324 71.4941C972.529 68.8249 973.131 66.0091 973.131 63.0469C973.131 59.2708 972.252 56.2109 970.494 53.8672C968.736 51.5234 966.425 50.3516 963.561 50.3516C959.947 50.3516 957.148 51.6048 955.162 54.1113C953.209 56.5853 952.232 60.166 952.232 64.8535H943.59C943.59 58.3105 945.38 53.0208 948.961 48.9844C952.542 44.9479 957.408 42.9297 963.561 42.9297C969.225 42.9297 973.684 44.6712 976.939 48.1543C980.195 51.6048 981.822 56.2109 981.822 61.9727C981.822 69.0039 978.16 77.321 970.836 86.9238L955.016 107.627H984.459V115ZM1005.16 75.0586H1010.68C1014.23 75.0586 1016.96 73.9681 1018.88 71.7871C1020.8 69.6061 1021.76 66.6276 1021.76 62.8516C1021.76 54.5182 1018.54 50.3516 1012.1 50.3516C1009 50.3516 1006.58 51.4746 1004.82 53.7207C1003.06 55.9668 1002.18 58.9128 1002.18 62.5586H993.59C993.59 56.862 995.315 52.1745 998.766 48.4961C1002.25 44.7852 1006.69 42.9297 1012.1 42.9297C1017.69 42.9297 1022.14 44.6875 1025.43 48.2031C1028.71 51.6862 1030.36 56.6341 1030.36 63.0469C1030.36 66.3346 1029.49 69.4108 1027.77 72.2754C1026.08 75.1074 1023.86 77.1908 1021.13 78.5254C1027.83 80.9993 1031.19 86.5495 1031.19 95.1758C1031.19 101.523 1029.41 106.585 1025.87 110.361C1022.35 114.105 1017.74 115.977 1012.05 115.977C1006.42 115.977 1001.86 114.202 998.375 110.654C994.924 107.074 993.199 102.272 993.199 96.25H1001.84C1001.84 100.026 1002.75 103.037 1004.58 105.283C1006.4 107.497 1008.89 108.604 1012.05 108.604C1015.27 108.604 1017.82 107.513 1019.71 105.332C1021.63 103.151 1022.59 99.8307 1022.59 95.3711C1022.59 86.7448 1018.51 82.4316 1010.34 82.4316H1005.16V75.0586Z" fill="white"/>
<path d="M1186.45 115H1177.75V54.7949L1162.81 61.4844V53.2812L1185.08 43.5645H1186.45V115ZM1238.54 84.6289C1235.09 89.0234 1231.06 91.2207 1226.44 91.2207C1221.26 91.2207 1217.14 89.0397 1214.08 84.6777C1211.02 80.3158 1209.49 74.6029 1209.49 67.5391C1209.49 60.1172 1211.15 54.1602 1214.47 49.668C1217.83 45.1758 1222.38 42.9297 1228.14 42.9297C1234.13 42.9297 1238.81 45.5339 1242.16 50.7422C1245.54 55.918 1247.24 63.0957 1247.24 72.2754V74.9609C1247.24 82.8385 1246.63 89.2188 1245.43 94.1016C1244.26 98.9844 1242.52 102.923 1240.21 105.918C1237.89 108.913 1234.95 111.191 1231.37 112.754C1227.79 114.284 1223.31 115.049 1217.94 115.049V107.432H1219.45C1225.57 107.301 1230.21 105.446 1233.37 101.865C1236.56 98.252 1238.28 92.5065 1238.54 84.6289ZM1227.9 83.75C1229.98 83.75 1232.02 82.8874 1234 81.1621C1235.99 79.4043 1237.54 77.1094 1238.64 74.2773V70.4688C1238.64 64.5768 1237.62 59.7754 1235.57 56.0645C1233.52 52.321 1231.04 50.4492 1228.14 50.4492C1225.02 50.4492 1222.53 51.9954 1220.67 55.0879C1218.85 58.1478 1217.94 62.1354 1217.94 67.0508C1217.94 71.9661 1218.83 75.9863 1220.62 79.1113C1222.42 82.2038 1224.84 83.75 1227.9 83.75Z" fill="white"/>
<path d="M1402.45 115H1393.75V54.7949L1378.81 61.4844V53.2812L1401.08 43.5645H1402.45V115ZM1429.64 79.3555L1432.72 43.9062H1463.63V52.2559H1439.99L1438.33 71.6406C1441.26 69.5898 1444.42 68.5645 1447.81 68.5645C1453.34 68.5645 1457.69 70.7129 1460.84 75.0098C1464 79.3066 1465.58 85.0846 1465.58 92.3438C1465.58 99.7005 1463.85 105.479 1460.4 109.678C1456.99 113.877 1452.28 115.977 1446.29 115.977C1440.95 115.977 1436.61 114.235 1433.26 110.752C1429.9 107.269 1427.98 102.451 1427.49 96.2988H1435.6C1436.09 100.368 1437.24 103.444 1439.07 105.527C1440.92 107.578 1443.33 108.604 1446.29 108.604C1449.65 108.604 1452.27 107.155 1454.15 104.258C1456.04 101.328 1456.99 97.3893 1456.99 92.4414C1456.99 87.7865 1455.96 83.9941 1453.91 81.0645C1451.89 78.1348 1449.16 76.6699 1445.71 76.6699C1442.84 76.6699 1440.55 77.4186 1438.82 78.916L1436.53 81.2109L1429.64 79.3555Z" fill="white"/>
<path d="M2278.67 647V575.906H2295.61C2303.91 575.906 2310.36 578.51 2314.95 583.719C2319.54 588.895 2321.83 596.186 2321.83 605.594V617.508C2321.83 626.915 2319.5 634.191 2314.85 639.334C2310.19 644.445 2303.44 647 2294.58 647H2278.67ZM2287.6 583.621V639.334H2294.78C2301.06 639.334 2305.65 637.544 2308.55 633.963C2311.45 630.35 2312.93 625.011 2312.99 617.947V605.35C2312.99 597.863 2311.54 592.378 2308.65 588.895C2305.78 585.379 2301.44 583.621 2295.61 583.621H2287.6ZM2332.77 618.143C2332.77 610.46 2334.62 604.389 2338.33 599.93C2342.08 595.438 2347.01 593.191 2353.13 593.191C2359.25 593.191 2364.16 595.372 2367.88 599.734C2371.62 604.096 2373.54 610.037 2373.64 617.557V623.123C2373.64 630.773 2371.78 636.827 2368.07 641.287C2364.36 645.747 2359.41 647.977 2353.23 647.977C2347.11 647.977 2342.19 645.812 2338.48 641.482C2334.8 637.153 2332.9 631.294 2332.77 623.904V618.143ZM2341.41 623.123C2341.41 628.559 2342.47 632.84 2344.58 635.965C2346.73 639.057 2349.61 640.604 2353.23 640.604C2360.84 640.604 2364.77 635.102 2364.99 624.1V618.143C2364.99 612.739 2363.92 608.475 2361.77 605.35C2359.62 602.192 2356.74 600.613 2353.13 600.613C2349.58 600.613 2346.73 602.192 2344.58 605.35C2342.47 608.475 2341.41 612.723 2341.41 618.094V623.123ZM2382.96 618.143C2382.96 610.46 2384.82 604.389 2388.53 599.93C2392.27 595.438 2397.2 593.191 2403.32 593.191C2409.44 593.191 2414.36 595.372 2418.07 599.734C2421.81 604.096 2423.73 610.037 2423.83 617.557V623.123C2423.83 630.773 2421.98 636.827 2418.27 641.287C2414.55 645.747 2409.61 647.977 2403.42 647.977C2397.3 647.977 2392.39 645.812 2388.68 641.482C2385 637.153 2383.09 631.294 2382.96 623.904V618.143ZM2391.61 623.123C2391.61 628.559 2392.66 632.84 2394.78 635.965C2396.93 639.057 2399.81 640.604 2403.42 640.604C2411.04 640.604 2414.96 635.102 2415.19 624.1V618.143C2415.19 612.739 2414.12 608.475 2411.97 605.35C2409.82 602.192 2406.94 600.613 2403.32 600.613C2399.78 600.613 2396.93 602.192 2394.78 605.35C2392.66 608.475 2391.61 612.723 2391.61 618.094V623.123ZM2456.79 602.273C2455.59 602.046 2454.28 601.932 2452.88 601.932C2448.46 601.932 2445.37 604.357 2443.61 609.207V647H2434.96V594.168H2443.36L2443.51 599.539C2445.82 595.307 2449.09 593.191 2453.32 593.191C2454.69 593.191 2455.83 593.419 2456.74 593.875L2456.79 602.273Z" fill="black"/>
</svg>
