<svg width="558" height="534" viewBox="0 0 558 534" fill="none"
    xmlns="http://www.w3.org/2000/svg">
    <path d="M529.137 179.057L376.95 156.87L308.929 18.9533C296.741 -5.63002 261.429 -5.94252 249.137 18.9533L181.116 156.87L28.9289 179.057C1.63721 183.016 -9.30029 216.662 10.4914 235.933L120.596 343.224L94.5539 494.787C89.8664 522.183 118.721 542.703 142.887 529.891L279.033 458.328L415.179 529.891C439.346 542.599 468.2 522.183 463.512 494.787L437.471 343.224L547.575 235.933C567.366 216.662 556.429 183.016 529.137 179.057V179.057ZM383.825 325.724L408.512 469.891L279.033 401.87L149.554 469.891L174.241 325.724L69.4497 223.641L214.241 202.599L279.033 71.3491L343.825 202.599L488.616 223.641L383.825 325.724V325.724Z" fill="black"/>
</svg>
