<svg width="601" height="574" viewBox="0 0 601 574" fill="none"
    xmlns="http://www.w3.org/2000/svg">
    <path d="M569.277 192.465L405.43 168.611L332.21 20.4131C325.628 7.17059 312.789 0.476562 299.949 0.476562C287.188 0.476562 274.438 7.08104 267.833 20.4131L194.591 168.6L30.7326 192.432C1.34827 196.686 -10.4279 232.831 10.8744 253.54L129.408 368.839L101.356 531.689C97.3706 554.95 115.942 573.611 136.74 573.611C142.259 573.611 147.934 572.301 153.386 569.413L299.971 492.533L446.546 569.436C451.986 572.29 457.65 573.589 463.147 573.589C483.968 573.589 502.572 554.995 498.587 531.723L470.568 368.861L589.124 253.585C610.438 232.876 598.662 196.719 569.277 192.465V192.465ZM433.001 330.376L412.718 350.1L417.509 377.95L439.359 504.947L325.035 444.958L299.983 431.816L300.016 76.7527L357.139 192.376L369.654 217.708L397.65 221.783L525.52 240.398L433.001 330.376V330.376Z" fill="black"/>
</svg>
