<svg width="4751" height="2075" viewBox="0 0 4751 2075" fill="none" xmlns="http://www.w3.org/2000/svg">
<path d="M1940.5 932.346C2226.67 714.512 2967.2 105.345 3174 17.3453C3251.33 -12.988 3554.9 -25.0547 4150.5 169.345C4248 198.345 4449.1 272.346 4473.5 336.346C4552.5 337.346 4718.6 402.446 4751 654.846V932.346H4549V654.846H4648.5C4652.17 590.679 4632.6 452.546 4525 413.346C4536.67 452.679 4562 548.746 4570 618.346H4537.5C4523.67 558.512 4483.9 429.546 4435.5 392.346C4375 345.846 3687 151.345 3364 169.345C3355.67 168.345 3299.5 184.5 3299.5 215C3398 228.667 3598.1 303.046 3610.5 529.846V848.346H3379.5V529.846H3499C3502.33 460.846 3467.1 312.646 3299.5 271.846C3308.67 550.512 3337.5 1132.85 3379.5 1232.85C3432 1357.85 4525 1346.85 4683 1289.85C4698.33 1304.35 4722.5 1439.65 4696.5 1864.85C4694 1912.18 4655.7 2011.75 4522.5 2031.35C4356 2055.85 3789.5 2085.85 3544 2069.35C3347.6 2056.15 3265.83 1994.85 3249.5 1965.85C3483 2001.18 4062.3 2048.45 4511.5 1954.85C4546.83 1953.01 4621.9 1927.55 4639.5 1840.35V1644.35C4618.7 1660.75 4539.17 1691.51 4502 1704.85C4586.8 1667.25 4620.67 1627.51 4627 1612.35V1544.85C4605.62 1564.05 4521.76 1591.85 4482.5 1603.35L4466.5 1718.85C4293.3 1797.25 3957.67 1777.51 3811.5 1757.85L3743 1620.85C3614.6 1606.45 3447.17 1564.18 3379.5 1544.85V1638.85C3424.45 1676.85 3660.23 1717.01 3772.5 1732.35C3612.9 1729.15 3425.67 1682.68 3352 1659.85L3341 1520.85H3324C3324.5 1566.51 3323.4 1654.05 3315 1638.85C3306.6 1623.65 3301.17 1516.18 3299.5 1464.35C4017.9 1718.52 4501.68 1579.58 4653.77 1478.35C4653.15 1416.34 4649.18 1373.6 4639.5 1374.35C4607 1376.85 3706.5 1452.35 3407 1352.85C3375.17 1351.68 3309.1 1326.05 3299.5 1232.85C3287.5 1116.35 3234.5 573 3230.5 187.5C3230.5 146 3268.4 113.4 3320 115C3378.47 116.813 3881.11 142.331 4241.27 258.085C3932.61 149.472 3426.97 3.42792 3246.5 72.3457C2992.5 169.345 2979 197.346 2573 499.846H2517.5C2568.5 519.679 2685.9 609.546 2747.5 810.346C2809.1 1011.15 2849.83 1063.35 2862.5 1064.35C2816.83 899.179 2706.1 557.646 2628.5 512.846C2751.83 422.346 3019 234.146 3101 205.346C3119.67 197.512 3157.3 190.846 3158.5 226.846C3197 360.512 3269.1 804.446 3249.5 1510.85C3221.33 1152.25 3155.2 413.618 3116 327.846C3076.8 242.073 2825 415.441 2704 512.846C2748.67 557.012 2854.4 720.046 2920 1018.85C2952.5 1122.51 3045.7 1345.45 3158.5 1407.85C3084.83 1395.35 2925.8 1346.15 2879 1249.35C2832.2 1152.55 2454.17 1141.35 2271 1147.85C2357.33 1115.18 2573.5 1037.35 2747.5 987.346L2628.5 736.846C2598.17 657.012 2324.9 705.545 1940.5 932.346Z" fill="black"/>
<path d="M29.8965 1690.37C29.8965 1650.27 36.1628 1613.21 48.6953 1579.19C61.5859 1544.81 79.3105 1515.09 101.869 1490.03C124.786 1464.96 151.82 1445.45 182.973 1431.48C214.483 1417.16 248.858 1410 286.098 1410C322.263 1410 355.385 1416.8 385.463 1430.41C415.541 1443.66 441.68 1462.46 463.881 1486.81C486.081 1511.16 503.806 1540.34 517.055 1574.36C530.303 1608.37 538.181 1645.97 540.688 1687.15C543.194 1731.19 538.539 1771.12 526.723 1806.92C515.264 1842.37 498.256 1872.63 475.697 1897.7C453.139 1922.4 426.104 1941.56 394.594 1955.17C363.441 1968.77 329.604 1975.58 293.08 1975.58C257.989 1975.58 224.509 1969.31 192.641 1956.78C161.13 1943.89 133.201 1925.27 108.852 1900.92C84.8607 1876.57 65.7038 1846.85 51.3809 1811.76C37.0579 1776.31 29.8965 1735.85 29.8965 1690.37ZM162.025 1699.5C162.025 1731.01 166.501 1759.48 175.453 1784.9C184.405 1810.33 196.4 1831.99 211.439 1849.89C226.479 1867.44 243.845 1881.04 263.539 1890.71C283.233 1900.38 304.001 1905.21 325.844 1905.21C347.686 1905.21 368.096 1900.56 387.074 1891.25C406.052 1881.58 422.523 1868.15 436.488 1850.97C450.453 1833.42 461.374 1812.47 469.252 1788.12C477.13 1763.78 481.068 1736.74 481.068 1707.02C481.068 1677.66 477.13 1650.09 469.252 1624.31C461.374 1598.17 450.274 1575.43 435.951 1556.09C421.986 1536.76 405.336 1521.54 386 1510.44C366.664 1499.34 345.538 1493.79 322.621 1493.79C302.211 1493.79 282.338 1498.44 263.002 1507.75C244.024 1517.06 227.016 1530.67 211.977 1548.57C196.938 1566.12 184.763 1587.6 175.453 1613.03C166.501 1638.45 162.025 1667.28 162.025 1699.5ZM640.053 1724.75C640.053 1691.09 643.454 1657.61 650.258 1624.31C657.419 1590.65 665.118 1559.85 673.354 1531.92L580.434 1537.83L842.543 1251.55C821.775 1317.08 804.945 1376.16 792.055 1428.8L1000.99 1446.52L973.598 1510.98L771.107 1525.48C766.094 1551.62 762.156 1574.89 759.291 1595.3C756.785 1615.35 754.636 1632.36 752.846 1646.33C751.055 1662.8 749.802 1677.12 749.086 1689.3C749.086 1725.1 751.234 1757.33 755.531 1785.98C759.828 1814.62 766.452 1839.15 775.404 1859.56C784.714 1879.61 796.352 1895.19 810.316 1906.29C824.639 1917.03 841.648 1922.4 861.342 1922.4C879.604 1922.4 894.822 1918.82 906.996 1911.66C919.529 1904.14 929.555 1894.65 937.074 1883.19C944.594 1871.38 949.965 1858.31 953.188 1843.98C956.41 1829.3 958.021 1814.8 958.021 1800.48C958.021 1787.23 956.947 1774.34 954.799 1761.81C970.196 1769.68 981.833 1782.4 989.711 1799.94C997.947 1817.13 1002.06 1835.93 1002.06 1856.34C1002.06 1877.46 998.484 1896.08 991.322 1912.2C984.519 1928.31 975.03 1941.92 962.855 1953.02C950.681 1963.76 936.358 1972 919.887 1977.72C903.415 1983.45 885.691 1986.32 866.713 1986.32C855.255 1986.32 841.648 1985.07 825.893 1982.56C810.495 1980.05 794.382 1975.4 777.553 1968.59C760.723 1962.15 744.073 1952.84 727.602 1940.66C711.13 1928.49 696.449 1912.73 683.559 1893.4C670.668 1874.06 660.105 1850.61 651.869 1823.04C643.992 1795.11 640.053 1762.34 640.053 1724.75ZM1036.44 1690.37C1036.44 1650.27 1042.71 1613.21 1055.24 1579.19C1068.13 1544.81 1085.85 1515.09 1108.41 1490.03C1131.33 1464.96 1158.36 1445.45 1189.52 1431.48C1221.03 1417.16 1255.4 1410 1292.64 1410C1328.81 1410 1361.93 1416.8 1392.01 1430.41C1422.08 1443.66 1448.22 1462.46 1470.42 1486.81C1492.62 1511.16 1510.35 1540.34 1523.6 1574.36C1536.85 1608.37 1544.72 1645.97 1547.23 1687.15C1549.74 1731.19 1545.08 1771.12 1533.27 1806.92C1521.81 1842.37 1504.8 1872.63 1482.24 1897.7C1459.68 1922.4 1432.65 1941.56 1401.14 1955.17C1369.98 1968.77 1336.15 1975.58 1299.62 1975.58C1264.53 1975.58 1231.05 1969.31 1199.18 1956.78C1167.67 1943.89 1139.74 1925.27 1115.39 1900.92C1091.4 1876.57 1072.25 1846.85 1057.92 1811.76C1043.6 1776.31 1036.44 1735.85 1036.44 1690.37ZM1168.57 1699.5C1168.57 1731.01 1173.04 1759.48 1182 1784.9C1190.95 1810.33 1202.94 1831.99 1217.98 1849.89C1233.02 1867.44 1250.39 1881.04 1270.08 1890.71C1289.78 1900.38 1310.54 1905.21 1332.39 1905.21C1354.23 1905.21 1374.64 1900.56 1393.62 1891.25C1412.6 1881.58 1429.07 1868.15 1443.03 1850.97C1457 1833.42 1467.92 1812.47 1475.79 1788.12C1483.67 1763.78 1487.61 1736.74 1487.61 1707.02C1487.61 1677.66 1483.67 1650.09 1475.79 1624.31C1467.92 1598.17 1456.82 1575.43 1442.49 1556.09C1428.53 1536.76 1411.88 1521.54 1392.54 1510.44C1373.21 1499.34 1352.08 1493.79 1329.16 1493.79C1308.75 1493.79 1288.88 1498.44 1269.54 1507.75C1250.57 1517.06 1233.56 1530.67 1218.52 1548.57C1203.48 1566.12 1191.31 1587.6 1182 1613.03C1173.04 1638.45 1168.57 1667.28 1168.57 1699.5ZM1418.32 1380.46L1299.62 1307.95L1179.31 1379.38L1298.01 1206.97L1418.32 1380.46ZM1865.2 1972.35C1845.86 1972.35 1827.96 1969.31 1811.49 1963.22C1795.02 1957.14 1780.34 1948.9 1767.45 1938.52C1754.55 1928.13 1743.28 1916.14 1733.61 1902.53C1724.3 1888.56 1716.96 1873.7 1711.59 1857.95L1657.34 1983.1L1636.39 1341.79L1501.58 1289.15L1786.24 1256.92C1779.08 1309.2 1773 1355.93 1767.98 1397.11C1762.97 1437.93 1758.85 1474.45 1755.63 1506.68C1774.96 1477.68 1798.42 1454.22 1825.99 1436.32C1853.92 1418.06 1885.79 1408.93 1921.6 1408.93C1948.09 1408.93 1971.19 1412.15 1990.88 1418.59C2010.58 1425.04 2027.41 1433.99 2041.37 1445.45C2055.69 1456.55 2067.33 1469.8 2076.28 1485.2C2085.59 1500.23 2092.93 1516.35 2098.3 1533.54C2103.68 1550.72 2107.44 1568.45 2109.58 1586.71C2111.73 1604.97 2112.81 1623.05 2112.81 1640.96C2112.81 1689.3 2107.44 1733.88 2096.69 1774.7C2086.31 1815.16 2070.73 1850.07 2049.96 1879.43C2029.55 1908.8 2003.77 1931.71 1972.62 1948.18C1941.83 1964.3 1906.02 1972.35 1865.2 1972.35ZM1873.26 1491.64C1858.22 1491.64 1844.07 1495.4 1830.82 1502.92C1817.58 1510.44 1805.4 1520.64 1794.3 1533.54C1783.56 1546.43 1773.89 1561.46 1765.3 1578.65C1757.06 1595.48 1750.08 1613.39 1744.35 1632.36C1743.63 1642.75 1743.1 1651.7 1742.74 1659.22C1742.38 1666.38 1742.2 1672.47 1742.2 1677.48C1741.84 1683.57 1741.84 1688.58 1742.2 1692.52C1742.2 1734.06 1745.24 1768.43 1751.33 1795.64C1757.42 1822.86 1765.65 1844.7 1776.04 1861.17C1786.42 1877.29 1798.42 1888.74 1812.03 1895.55C1825.99 1901.99 1840.49 1905.21 1855.53 1905.21C1870.57 1905.21 1885.97 1899.49 1901.72 1888.03C1917.48 1876.57 1931.8 1860.1 1944.69 1838.61C1957.94 1817.13 1968.68 1791.17 1976.92 1760.73C1985.51 1730.3 1989.81 1695.92 1989.81 1657.61C1989.81 1630.75 1986.59 1606.94 1980.14 1586.17C1973.7 1565.4 1964.92 1548.04 1953.82 1534.07C1943.08 1520.11 1930.73 1509.54 1916.76 1502.38C1902.8 1495.22 1888.29 1491.64 1873.26 1491.64ZM2642.93 1437.39L2663.88 1899.31L2760.56 1944.42L2540.35 1985.24L2550.55 1827.87C2540.52 1849 2529.07 1869.23 2516.18 1888.56C2503.29 1907.54 2488.78 1924.37 2472.67 1939.05C2456.56 1953.38 2438.83 1964.83 2419.5 1973.43C2400.52 1982.02 2379.93 1986.32 2357.73 1986.32C2331.23 1986.32 2307.96 1981.66 2287.9 1972.35C2267.85 1963.04 2251.02 1950.33 2237.42 1934.22C2223.81 1917.75 2213.43 1898.59 2206.26 1876.75C2199.46 1854.55 2196.06 1830.91 2196.06 1805.85C2196.06 1782.57 2197.85 1758.4 2201.43 1733.34C2205.01 1708.27 2209.84 1683.57 2215.93 1659.22C2222.38 1634.51 2229.9 1610.7 2238.49 1587.78C2247.44 1564.51 2257.11 1543.02 2267.49 1523.33L2154.16 1497.01L2366.86 1424.5C2353.25 1460.67 2342.69 1495.4 2335.17 1528.7C2328.01 1561.64 2322.64 1591.01 2319.06 1616.79C2315.12 1646.87 2312.61 1674.79 2311.54 1700.58C2311.54 1733.88 2313.86 1762.7 2318.52 1787.05C2323.17 1811.04 2329.62 1831.09 2337.86 1847.21C2346.09 1862.96 2355.94 1874.78 2367.4 1882.66C2378.85 1890.18 2391.39 1893.94 2404.99 1893.94C2425.76 1893.94 2444.38 1888.39 2460.85 1877.29C2477.32 1866.18 2491.83 1851.32 2504.36 1832.71C2517.25 1813.73 2528.17 1791.71 2537.12 1766.64C2546.43 1741.58 2553.95 1715.08 2559.68 1687.15C2565.77 1659.22 2570.24 1630.75 2573.11 1601.75C2575.97 1572.74 2577.59 1544.81 2577.94 1517.96L2461.39 1437.39H2642.93ZM2974.87 1413.22C2988.47 1413.22 3002.26 1414.48 3016.22 1416.98C3030.19 1419.13 3043.8 1422.53 3057.04 1427.19C3070.65 1431.48 3083.36 1436.86 3095.18 1443.3C3107.35 1449.39 3118.28 1456.19 3127.94 1463.71L3216.03 1355.21L3176.28 1623.23C3171.99 1604.61 3164.47 1586.35 3153.72 1568.45C3142.98 1550.19 3129.55 1533.89 3113.44 1519.57C3097.69 1505.25 3079.42 1493.79 3058.66 1485.2C3037.89 1476.24 3015.15 1471.77 2990.44 1471.77C2976.84 1471.77 2963.77 1473.38 2951.23 1476.6C2938.7 1479.47 2927.6 1484.3 2917.93 1491.1C2908.62 1497.91 2901.1 1506.5 2895.38 1516.88C2890 1527.27 2887.32 1539.62 2887.32 1553.95C2887.32 1571.13 2891.97 1585.1 2901.28 1595.84C2910.95 1606.58 2923.48 1615.71 2938.88 1623.23C2954.28 1630.39 2971.82 1636.66 2991.52 1642.03C3011.21 1647.04 3031.44 1652.42 3052.21 1658.14C3072.98 1663.87 3093.21 1670.68 3112.9 1678.55C3132.6 1686.07 3150.14 1695.92 3165.54 1708.1C3180.94 1720.27 3193.29 1735.49 3202.6 1753.75C3212.27 1771.65 3217.1 1793.85 3217.1 1820.35C3217.1 1850.07 3211.2 1875.49 3199.38 1896.62C3187.92 1917.39 3173.06 1934.58 3154.8 1948.18C3136.54 1961.43 3116.31 1971.1 3094.11 1977.19C3071.9 1983.27 3050.24 1986.32 3029.12 1986.32C3011.93 1986.32 2994.74 1984.53 2977.55 1980.95C2960.37 1977.37 2943.71 1972.35 2927.6 1965.91C2911.49 1959.46 2896.09 1951.76 2881.41 1942.81C2867.09 1933.86 2854.02 1924.19 2842.2 1913.81L2760.56 2022.84L2785.8 1756.44C2797.26 1780.78 2811.05 1803.52 2827.16 1824.65C2843.28 1845.77 2861.18 1864.22 2880.87 1879.97C2900.57 1895.37 2921.69 1907.54 2944.25 1916.49C2966.81 1925.09 2990.26 1929.38 3014.61 1929.38C3042.9 1929.38 3065.46 1923.48 3082.29 1911.66C3099.48 1899.49 3108.07 1882.3 3108.07 1860.1C3108.07 1845.77 3103.24 1833.96 3093.57 1824.65C3084.26 1814.98 3071.73 1806.57 3055.97 1799.4C3040.57 1792.24 3023.03 1785.8 3003.33 1780.07C2983.64 1774.34 2963.41 1768.07 2942.64 1761.27C2921.87 1754.47 2901.64 1746.59 2881.95 1737.64C2862.25 1728.33 2844.53 1716.87 2828.77 1703.26C2813.38 1689.3 2800.84 1672.47 2791.18 1652.77C2781.87 1632.72 2777.21 1608.55 2777.21 1580.26C2777.21 1555.91 2780.79 1534.79 2787.95 1516.88C2795.11 1498.98 2804.42 1483.94 2815.88 1471.77C2827.7 1459.24 2840.77 1449.21 2855.09 1441.69C2869.77 1433.81 2884.45 1427.9 2899.13 1423.96C2913.82 1419.67 2927.78 1416.8 2941.03 1415.37C2954.28 1413.94 2965.56 1413.22 2974.87 1413.22Z" fill="black"/>
</svg>
