<svg width="4751" height="2075" viewBox="0 0 4751 2075" fill="none" xmlns="http://www.w3.org/2000/svg">
<path d="M4242.87 253.345C4088.43 199.005 3884.68 135.285 3696.89 93.7592C3602.99 72.9948 3512.96 57.7538 3435.03 52.0325C3357.25 46.3225 3290.9 50.0393 3244.72 67.6747C3117.54 116.242 3050.29 147.646 2963.99 204.866C2905.28 243.791 2837.68 294.72 2736.2 371.172C2689.3 406.502 2635.17 447.281 2571.34 494.846H2517.5L2515.69 504.506C2565.03 523.696 2681.49 612.225 2742.72 811.812C2773.56 912.355 2799.25 975.906 2818.89 1014.54C2828.71 1033.84 2837.09 1047.06 2843.95 1055.6C2847.38 1059.87 2850.52 1063.09 2853.37 1065.32C2856.11 1067.46 2859.08 1069.09 2862.11 1069.33L2869.22 1069.89L2867.32 1063.01C2844.46 980.324 2805.31 853.484 2762.14 741.658C2740.56 685.756 2717.93 633.484 2695.78 592.322C2684.71 571.742 2673.7 553.841 2662.95 539.616C2654.35 528.243 2645.76 518.999 2637.23 512.645C2699.07 467.39 2793.48 400.125 2883.03 340.112C2929.23 309.154 2974.09 280.151 3012.49 257.103C3051.02 233.984 3082.69 217.074 3102.66 210.063L3102.8 210.014L3102.93 209.956C3111.88 206.203 3124.95 202.948 3135.53 204.599C3140.71 205.406 3144.95 207.33 3147.96 210.591C3150.95 213.822 3153.23 218.904 3153.5 227.012L3153.52 227.633L3153.7 228.23C3190.2 354.983 3257.41 763.715 3246.67 1413.19C3232.48 1240.38 3212.65 1016.63 3191.86 816.521C3179.38 696.397 3166.55 584.753 3154.39 497.755C3148.31 454.261 3142.38 416.876 3136.75 387.649C3131.14 358.609 3125.73 337.113 3120.55 325.767C3115.01 313.649 3105.6 306.05 3093.45 302.387C3081.51 298.787 3067.1 299.022 3051.2 301.952C3019.4 307.811 2979.91 324.791 2938.3 347.254C2854.95 392.252 2761.49 460.151 2700.86 508.951L2696.5 512.463L2700.48 516.401C2744.22 559.644 2849.63 721.65 2915.12 1019.92L2915.16 1020.13L2915.23 1020.34C2931.56 1072.43 2963.1 1154.38 3004.74 1231.2C3040.87 1297.85 3085 1361.41 3133.91 1397.83C3098.9 1389.88 3053.8 1376.05 3010.82 1355.69C2956.31 1329.88 2906.14 1294 2883.5 1247.17C2877.09 1233.92 2865.23 1222.53 2849.62 1212.69C2833.97 1202.84 2814.23 1194.33 2791.56 1186.98C2746.21 1172.27 2688.47 1161.95 2626.71 1154.89C2515.96 1142.23 2391.58 1139.98 2300.92 1141.99C2399.96 1105.26 2591.68 1037.32 2748.88 992.151L2754.55 990.524L2752.02 985.2L2633.1 734.877C2624.37 712.217 2598.97 700.004 2562.69 696.838C2526.01 693.636 2476.38 699.445 2416.04 714.762C2308.92 741.956 2167.09 799.375 2002.08 891.265C2064.54 842.791 2140.37 782.935 2223.34 717.438C2337.47 627.352 2465.11 526.596 2590.07 430.116C2713.43 334.869 2834.26 243.716 2937.15 170.887C3040.15 97.9882 3124.75 43.7506 3175.89 21.9745C3194.49 14.6933 3227.32 8.30152 3275.69 5.95509C3324.02 3.61093 3387.56 5.31718 3467.36 14.0407C3626.95 31.4874 3851.4 76.9816 4148.95 174.099L4149.01 174.119L4149.07 174.138C4197.67 188.592 4272.08 214.264 4337.32 244.263C4369.95 259.268 4400.14 275.287 4423.61 291.448C4447.32 307.766 4463.31 323.656 4468.83 338.127L4470.04 341.302L4473.44 341.345C4550.05 342.315 4713.84 405.629 4746 655.165V927.346H4554V659.846H4648.5H4653.22L4653.49 655.131C4655.36 622.49 4651.33 571.197 4633.15 522.97C4614.97 474.714 4582.36 428.921 4526.71 408.648L4517.38 405.249L4520.21 414.768C4531.54 452.988 4555.75 544.711 4564.36 613.346H4541.46C4534.27 583.137 4521.19 537.786 4504.11 495.004C4495.19 472.676 4485.14 450.949 4474.22 432.401C4463.34 413.926 4451.39 398.254 4438.55 388.381C4430.32 382.056 4412.26 373.699 4387.14 364.01C4361.77 354.224 4328.56 342.847 4289.47 330.583C4211.29 306.051 4109.41 277.911 3999.34 251.793C3779.56 199.642 3526.39 155.374 3364.08 164.333C3362.33 164.212 3360.14 164.467 3357.98 164.843C3355.43 165.285 3352.38 165.999 3349.02 166.963C3342.32 168.889 3334.21 171.88 3326.35 175.91C3318.51 179.923 3310.68 185.086 3304.75 191.449C3298.79 197.838 3294.5 205.727 3294.5 215V219.354L3298.81 219.953C3347.44 226.7 3421.22 248.469 3484.26 296.476C3547.11 344.342 3599.36 418.309 3605.5 529.983V843.346H3384.5V534.846H3499H3503.76L3503.99 530.087C3507.39 459.781 3471.53 308.578 3300.68 266.988L3294.29 265.43L3294.5 272.01C3299.09 411.385 3308.59 626.7 3322.2 819.697C3329 916.19 3336.84 1007.16 3345.61 1080.28C3349.99 1116.85 3354.61 1149 3359.46 1175.18C3364.3 1201.27 3369.42 1221.75 3374.89 1234.78C3378.75 1243.98 3387.1 1251.95 3398.42 1258.96C3409.81 1266.02 3424.73 1272.43 3442.54 1278.27C3478.18 1289.96 3526.14 1299.61 3582.41 1307.45C3695.01 1323.15 3841.72 1331.72 3991.59 1334.59C4141.49 1337.47 4294.69 1334.66 4420.34 1327.56C4483.16 1324.01 4539.13 1319.38 4584.39 1313.85C4627.02 1308.64 4660.5 1302.59 4681.21 1295.75C4682.09 1297.3 4683.16 1299.61 4684.33 1302.93C4686.3 1308.53 4688.34 1316.4 4690.32 1326.94C4694.28 1348.01 4697.91 1379.32 4700.26 1423.6C4704.95 1512.13 4704.5 1652.04 4691.51 1864.54L4691.51 1864.56L4691.51 1864.58C4689.1 1910.12 4652.08 2007.22 4521.77 2026.4C4355.59 2050.85 3789.45 2080.83 3544.34 2064.36C3446.59 2057.79 3377.63 2039.27 3331.23 2018.94C3294.22 2002.73 3271.86 1985.51 3260.52 1972.54C3501.38 2007.66 4069.52 2051.96 4512.15 1959.82C4548.95 1957.75 4626.25 1931.29 4644.4 1841.33L4644.5 1840.85V1840.35V1644.35V1634.04L4636.4 1640.42C4631.65 1644.17 4623.2 1648.97 4612.26 1654.36C4601.42 1659.7 4588.47 1665.45 4574.95 1671.14C4574.35 1671.39 4573.76 1671.64 4573.16 1671.89C4582.34 1665.71 4590.29 1659.71 4597.12 1654.03C4617.24 1637.28 4628 1622.93 4631.61 1614.27L4632 1613.35V1612.35V1544.85V1533.64L4623.66 1541.13C4618.89 1545.41 4610.2 1550.49 4598.77 1555.96C4587.46 1561.36 4573.89 1566.94 4559.69 1572.31C4531.29 1583.04 4500.63 1592.82 4481.09 1598.55L4477.99 1599.46L4477.55 1602.66L4461.93 1715.42C4376.36 1753.33 4251.28 1767.74 4128.77 1770.12C4006.69 1772.5 3887.89 1762.93 3814.79 1753.24L3747.47 1618.61L3746.26 1616.18L3743.56 1615.88C3615.57 1601.52 3448.45 1559.35 3380.87 1540.04L3374.5 1538.22V1544.85V1638.85V1641.17L3376.27 1642.66C3382.45 1647.88 3391.57 1652.9 3402.7 1657.73C3413.89 1662.59 3427.41 1667.4 3442.6 1672.11C3472.99 1681.52 3510.35 1690.62 3549.72 1698.99C3579.97 1705.42 3611.46 1711.43 3641.96 1716.83C3524.33 1701.4 3411.81 1672.9 3356.72 1656.07L3345.98 1520.45L3345.62 1515.85H3341H3324H3318.94L3319 1520.9C3319.25 1543.69 3319.1 1576.88 3317.84 1602.43C3317.42 1611.02 3316.88 1618.63 3316.2 1624.64C3315.53 1620.97 3314.86 1616.65 3314.23 1611.8C3312.53 1598.92 3311.02 1582.55 3309.71 1564.96C3307.34 1532.97 3305.66 1497.18 3304.74 1471.5C4020.41 1722.72 4503.31 1584.51 4656.54 1482.51L4658.8 1481.01L4658.77 1478.3C4658.46 1447.25 4657.31 1420.83 4654.99 1402.2C4653.84 1392.93 4652.37 1385.28 4650.43 1379.88C4649.48 1377.21 4648.28 1374.7 4646.68 1372.82C4645.01 1370.86 4642.46 1369.1 4639.12 1369.36C4638.22 1369.43 4636.67 1369.55 4634.49 1369.73C4597.08 1372.72 4375.05 1390.47 4123.25 1396.85C3990 1400.22 3848.49 1400.41 3721.63 1393.54C3594.64 1386.67 3482.78 1372.75 3408.58 1348.1L3407.9 1347.88L3407.18 1347.85C3392.3 1347.3 3368.91 1340.97 3348.13 1323.53C3327.48 1306.2 3309.15 1277.71 3304.47 1232.33C3292.47 1115.83 3239.5 572.712 3235.5 187.472C3235.52 149.544 3270.28 118.461 3319.85 119.998C3378.27 121.809 3880.24 147.32 4239.68 262.824C4278.5 276.486 4314.2 289.553 4345.73 301.52L4349.42 292.23C4315.83 278.247 4280.09 265.311 4242.87 253.345Z" fill="white" stroke="white" stroke-width="10"/>
<path d="M29.8965 1690.37C29.8965 1650.27 36.1628 1613.21 48.6953 1579.19C61.5859 1544.81 79.3105 1515.09 101.869 1490.03C124.786 1464.96 151.82 1445.45 182.973 1431.48C214.483 1417.16 248.858 1410 286.098 1410C322.263 1410 355.385 1416.8 385.463 1430.41C415.541 1443.66 441.68 1462.46 463.881 1486.81C486.081 1511.16 503.806 1540.34 517.055 1574.36C530.303 1608.37 538.181 1645.97 540.688 1687.15C543.194 1731.19 538.539 1771.12 526.723 1806.92C515.264 1842.37 498.256 1872.63 475.697 1897.7C453.139 1922.4 426.104 1941.56 394.594 1955.17C363.441 1968.77 329.604 1975.58 293.08 1975.58C257.989 1975.58 224.509 1969.31 192.641 1956.78C161.13 1943.89 133.201 1925.27 108.852 1900.92C84.8607 1876.57 65.7038 1846.85 51.3809 1811.76C37.0579 1776.31 29.8965 1735.85 29.8965 1690.37ZM162.025 1699.5C162.025 1731.01 166.501 1759.48 175.453 1784.9C184.405 1810.33 196.4 1831.99 211.439 1849.89C226.479 1867.44 243.845 1881.04 263.539 1890.71C283.233 1900.38 304.001 1905.21 325.844 1905.21C347.686 1905.21 368.096 1900.56 387.074 1891.25C406.052 1881.58 422.523 1868.15 436.488 1850.97C450.453 1833.42 461.374 1812.47 469.252 1788.12C477.13 1763.78 481.068 1736.74 481.068 1707.02C481.068 1677.66 477.13 1650.09 469.252 1624.31C461.374 1598.17 450.274 1575.43 435.951 1556.09C421.986 1536.76 405.336 1521.54 386 1510.44C366.664 1499.34 345.538 1493.79 322.621 1493.79C302.211 1493.79 282.338 1498.44 263.002 1507.75C244.024 1517.06 227.016 1530.67 211.977 1548.57C196.938 1566.12 184.763 1587.6 175.453 1613.03C166.501 1638.45 162.025 1667.28 162.025 1699.5ZM640.053 1724.75C640.053 1691.09 643.454 1657.61 650.258 1624.31C657.419 1590.65 665.118 1559.85 673.354 1531.92L580.434 1537.83L842.543 1251.55C821.775 1317.08 804.945 1376.16 792.055 1428.8L1000.99 1446.52L973.598 1510.98L771.107 1525.48C766.094 1551.62 762.156 1574.89 759.291 1595.3C756.785 1615.35 754.636 1632.36 752.846 1646.33C751.055 1662.8 749.802 1677.12 749.086 1689.3C749.086 1725.1 751.234 1757.33 755.531 1785.98C759.828 1814.62 766.452 1839.15 775.404 1859.56C784.714 1879.61 796.352 1895.19 810.316 1906.29C824.639 1917.03 841.648 1922.4 861.342 1922.4C879.604 1922.4 894.822 1918.82 906.996 1911.66C919.529 1904.14 929.555 1894.65 937.074 1883.19C944.594 1871.38 949.965 1858.31 953.188 1843.98C956.41 1829.3 958.021 1814.8 958.021 1800.48C958.021 1787.23 956.947 1774.34 954.799 1761.81C970.196 1769.68 981.833 1782.4 989.711 1799.94C997.947 1817.13 1002.06 1835.93 1002.06 1856.34C1002.06 1877.46 998.484 1896.08 991.322 1912.2C984.519 1928.31 975.03 1941.92 962.855 1953.02C950.681 1963.76 936.358 1972 919.887 1977.72C903.415 1983.45 885.691 1986.32 866.713 1986.32C855.255 1986.32 841.648 1985.07 825.893 1982.56C810.495 1980.05 794.382 1975.4 777.553 1968.59C760.723 1962.15 744.073 1952.84 727.602 1940.66C711.13 1928.49 696.449 1912.73 683.559 1893.4C670.668 1874.06 660.105 1850.61 651.869 1823.04C643.992 1795.11 640.053 1762.34 640.053 1724.75ZM1036.44 1690.37C1036.44 1650.27 1042.71 1613.21 1055.24 1579.19C1068.13 1544.81 1085.85 1515.09 1108.41 1490.03C1131.33 1464.96 1158.36 1445.45 1189.52 1431.48C1221.03 1417.16 1255.4 1410 1292.64 1410C1328.81 1410 1361.93 1416.8 1392.01 1430.41C1422.08 1443.66 1448.22 1462.46 1470.42 1486.81C1492.62 1511.16 1510.35 1540.34 1523.6 1574.36C1536.85 1608.37 1544.72 1645.97 1547.23 1687.15C1549.74 1731.19 1545.08 1771.12 1533.27 1806.92C1521.81 1842.37 1504.8 1872.63 1482.24 1897.7C1459.68 1922.4 1432.65 1941.56 1401.14 1955.17C1369.98 1968.77 1336.15 1975.58 1299.62 1975.58C1264.53 1975.58 1231.05 1969.31 1199.18 1956.78C1167.67 1943.89 1139.74 1925.27 1115.39 1900.92C1091.4 1876.57 1072.25 1846.85 1057.92 1811.76C1043.6 1776.31 1036.44 1735.85 1036.44 1690.37ZM1168.57 1699.5C1168.57 1731.01 1173.04 1759.48 1182 1784.9C1190.95 1810.33 1202.94 1831.99 1217.98 1849.89C1233.02 1867.44 1250.39 1881.04 1270.08 1890.71C1289.78 1900.38 1310.54 1905.21 1332.39 1905.21C1354.23 1905.21 1374.64 1900.56 1393.62 1891.25C1412.6 1881.58 1429.07 1868.15 1443.03 1850.97C1457 1833.42 1467.92 1812.47 1475.79 1788.12C1483.67 1763.78 1487.61 1736.74 1487.61 1707.02C1487.61 1677.66 1483.67 1650.09 1475.79 1624.31C1467.92 1598.17 1456.82 1575.43 1442.49 1556.09C1428.53 1536.76 1411.88 1521.54 1392.54 1510.44C1373.21 1499.34 1352.08 1493.79 1329.16 1493.79C1308.75 1493.79 1288.88 1498.44 1269.54 1507.75C1250.57 1517.06 1233.56 1530.67 1218.52 1548.57C1203.48 1566.12 1191.31 1587.6 1182 1613.03C1173.04 1638.45 1168.57 1667.28 1168.57 1699.5ZM1418.32 1380.46L1299.62 1307.95L1179.31 1379.38L1298.01 1206.97L1418.32 1380.46ZM1865.2 1972.35C1845.86 1972.35 1827.96 1969.31 1811.49 1963.22C1795.02 1957.14 1780.34 1948.9 1767.45 1938.52C1754.55 1928.13 1743.28 1916.14 1733.61 1902.53C1724.3 1888.56 1716.96 1873.7 1711.59 1857.95L1657.34 1983.1L1636.39 1341.79L1501.58 1289.15L1786.24 1256.92C1779.08 1309.2 1773 1355.93 1767.98 1397.11C1762.97 1437.93 1758.85 1474.45 1755.63 1506.68C1774.96 1477.68 1798.42 1454.22 1825.99 1436.32C1853.92 1418.06 1885.79 1408.93 1921.6 1408.93C1948.09 1408.93 1971.19 1412.15 1990.88 1418.59C2010.58 1425.04 2027.41 1433.99 2041.37 1445.45C2055.69 1456.55 2067.33 1469.8 2076.28 1485.2C2085.59 1500.23 2092.93 1516.35 2098.3 1533.54C2103.68 1550.72 2107.44 1568.45 2109.58 1586.71C2111.73 1604.97 2112.81 1623.05 2112.81 1640.96C2112.81 1689.3 2107.44 1733.88 2096.69 1774.7C2086.31 1815.16 2070.73 1850.07 2049.96 1879.43C2029.55 1908.8 2003.77 1931.71 1972.62 1948.18C1941.83 1964.3 1906.02 1972.35 1865.2 1972.35ZM1873.26 1491.64C1858.22 1491.64 1844.07 1495.4 1830.82 1502.92C1817.58 1510.44 1805.4 1520.64 1794.3 1533.54C1783.56 1546.43 1773.89 1561.46 1765.3 1578.65C1757.06 1595.48 1750.08 1613.39 1744.35 1632.36C1743.63 1642.75 1743.1 1651.7 1742.74 1659.22C1742.38 1666.38 1742.2 1672.47 1742.2 1677.48C1741.84 1683.57 1741.84 1688.58 1742.2 1692.52C1742.2 1734.06 1745.24 1768.43 1751.33 1795.64C1757.42 1822.86 1765.65 1844.7 1776.04 1861.17C1786.42 1877.29 1798.42 1888.74 1812.03 1895.55C1825.99 1901.99 1840.49 1905.21 1855.53 1905.21C1870.57 1905.21 1885.97 1899.49 1901.72 1888.03C1917.48 1876.57 1931.8 1860.1 1944.69 1838.61C1957.94 1817.13 1968.68 1791.17 1976.92 1760.73C1985.51 1730.3 1989.81 1695.92 1989.81 1657.61C1989.81 1630.75 1986.59 1606.94 1980.14 1586.17C1973.7 1565.4 1964.92 1548.04 1953.82 1534.07C1943.08 1520.11 1930.73 1509.54 1916.76 1502.38C1902.8 1495.22 1888.29 1491.64 1873.26 1491.64ZM2642.93 1437.39L2663.88 1899.31L2760.56 1944.42L2540.35 1985.24L2550.55 1827.87C2540.52 1849 2529.07 1869.23 2516.18 1888.56C2503.29 1907.54 2488.78 1924.37 2472.67 1939.05C2456.56 1953.38 2438.83 1964.83 2419.5 1973.43C2400.52 1982.02 2379.93 1986.32 2357.73 1986.32C2331.23 1986.32 2307.96 1981.66 2287.9 1972.35C2267.85 1963.04 2251.02 1950.33 2237.42 1934.22C2223.81 1917.75 2213.43 1898.59 2206.26 1876.75C2199.46 1854.55 2196.06 1830.91 2196.06 1805.85C2196.06 1782.57 2197.85 1758.4 2201.43 1733.34C2205.01 1708.27 2209.84 1683.57 2215.93 1659.22C2222.38 1634.51 2229.9 1610.7 2238.49 1587.78C2247.44 1564.51 2257.11 1543.02 2267.49 1523.33L2154.16 1497.01L2366.86 1424.5C2353.25 1460.67 2342.69 1495.4 2335.17 1528.7C2328.01 1561.64 2322.64 1591.01 2319.06 1616.79C2315.12 1646.87 2312.61 1674.79 2311.54 1700.58C2311.54 1733.88 2313.86 1762.7 2318.52 1787.05C2323.17 1811.04 2329.62 1831.09 2337.86 1847.21C2346.09 1862.96 2355.94 1874.78 2367.4 1882.66C2378.85 1890.18 2391.39 1893.94 2404.99 1893.94C2425.76 1893.94 2444.38 1888.39 2460.85 1877.29C2477.32 1866.18 2491.83 1851.32 2504.36 1832.71C2517.25 1813.73 2528.17 1791.71 2537.12 1766.64C2546.43 1741.58 2553.95 1715.08 2559.68 1687.15C2565.77 1659.22 2570.24 1630.75 2573.11 1601.75C2575.97 1572.74 2577.59 1544.81 2577.94 1517.96L2461.39 1437.39H2642.93ZM2974.87 1413.22C2988.47 1413.22 3002.26 1414.48 3016.22 1416.98C3030.19 1419.13 3043.8 1422.53 3057.04 1427.19C3070.65 1431.48 3083.36 1436.86 3095.18 1443.3C3107.35 1449.39 3118.28 1456.19 3127.94 1463.71L3216.03 1355.21L3176.28 1623.23C3171.99 1604.61 3164.47 1586.35 3153.72 1568.45C3142.98 1550.19 3129.55 1533.89 3113.44 1519.57C3097.69 1505.25 3079.42 1493.79 3058.66 1485.2C3037.89 1476.24 3015.15 1471.77 2990.44 1471.77C2976.84 1471.77 2963.77 1473.38 2951.23 1476.6C2938.7 1479.47 2927.6 1484.3 2917.93 1491.1C2908.62 1497.91 2901.1 1506.5 2895.38 1516.88C2890 1527.27 2887.32 1539.62 2887.32 1553.95C2887.32 1571.13 2891.97 1585.1 2901.28 1595.84C2910.95 1606.58 2923.48 1615.71 2938.88 1623.23C2954.28 1630.39 2971.82 1636.66 2991.52 1642.03C3011.21 1647.04 3031.44 1652.42 3052.21 1658.14C3072.98 1663.87 3093.21 1670.68 3112.9 1678.55C3132.6 1686.07 3150.14 1695.92 3165.54 1708.1C3180.94 1720.27 3193.29 1735.49 3202.6 1753.75C3212.27 1771.65 3217.1 1793.85 3217.1 1820.35C3217.1 1850.07 3211.2 1875.49 3199.38 1896.62C3187.92 1917.39 3173.06 1934.58 3154.8 1948.18C3136.54 1961.43 3116.31 1971.1 3094.11 1977.19C3071.9 1983.27 3050.24 1986.32 3029.12 1986.32C3011.93 1986.32 2994.74 1984.53 2977.55 1980.95C2960.37 1977.37 2943.71 1972.35 2927.6 1965.91C2911.49 1959.46 2896.09 1951.76 2881.41 1942.81C2867.09 1933.86 2854.02 1924.19 2842.2 1913.81L2760.56 2022.84L2785.8 1756.44C2797.26 1780.78 2811.05 1803.52 2827.16 1824.65C2843.28 1845.77 2861.18 1864.22 2880.87 1879.97C2900.57 1895.37 2921.69 1907.54 2944.25 1916.49C2966.81 1925.09 2990.26 1929.38 3014.61 1929.38C3042.9 1929.38 3065.46 1923.48 3082.29 1911.66C3099.48 1899.49 3108.07 1882.3 3108.07 1860.1C3108.07 1845.77 3103.24 1833.96 3093.57 1824.65C3084.26 1814.98 3071.73 1806.57 3055.97 1799.4C3040.57 1792.24 3023.03 1785.8 3003.33 1780.07C2983.64 1774.34 2963.41 1768.07 2942.64 1761.27C2921.87 1754.47 2901.64 1746.59 2881.95 1737.64C2862.25 1728.33 2844.53 1716.87 2828.77 1703.26C2813.38 1689.3 2800.84 1672.47 2791.18 1652.77C2781.87 1632.72 2777.21 1608.55 2777.21 1580.26C2777.21 1555.91 2780.79 1534.79 2787.95 1516.88C2795.11 1498.98 2804.42 1483.94 2815.88 1471.77C2827.7 1459.24 2840.77 1449.21 2855.09 1441.69C2869.77 1433.81 2884.45 1427.9 2899.13 1423.96C2913.82 1419.67 2927.78 1416.8 2941.03 1415.37C2954.28 1413.94 2965.56 1413.22 2974.87 1413.22Z" fill="white"/>
<path d="M48.6953 1579.19L39.332 1575.68L39.3219 1575.71L39.3119 1575.73L48.6953 1579.19ZM101.869 1490.03L94.4889 1483.28L94.4624 1483.31L94.4362 1483.34L101.869 1490.03ZM182.973 1431.48L187.063 1440.61L187.087 1440.6L187.111 1440.59L182.973 1431.48ZM385.463 1430.41L381.341 1439.52L381.386 1439.54L381.432 1439.56L385.463 1430.41ZM540.688 1687.15L550.671 1686.58L550.67 1686.56L550.669 1686.54L540.688 1687.15ZM526.723 1806.92L517.226 1803.79L517.217 1803.82L517.207 1803.85L526.723 1806.92ZM475.697 1897.7L483.082 1904.44L483.106 1904.41L483.13 1904.38L475.697 1897.7ZM394.594 1955.17L390.629 1945.99L390.61 1945.99L390.591 1946L394.594 1955.17ZM192.641 1956.78L188.854 1966.03L188.917 1966.06L188.981 1966.08L192.641 1956.78ZM108.852 1900.92L101.728 1907.94L101.754 1907.96L101.78 1907.99L108.852 1900.92ZM51.3809 1811.76L42.1091 1815.5L42.1157 1815.52L42.1224 1815.54L51.3809 1811.76ZM211.439 1849.89L203.782 1856.32L203.814 1856.36L203.847 1856.4L211.439 1849.89ZM263.539 1890.71L267.946 1881.74L263.539 1890.71ZM387.074 1891.25L391.478 1900.23L391.546 1900.19L391.613 1900.16L387.074 1891.25ZM436.488 1850.97L444.249 1857.27L444.281 1857.23L444.313 1857.19L436.488 1850.97ZM469.252 1624.31L459.677 1627.19L459.683 1627.21L459.688 1627.23L469.252 1624.31ZM435.951 1556.09L427.844 1561.95L427.88 1562L427.916 1562.05L435.951 1556.09ZM263.002 1507.75L258.664 1498.74L258.631 1498.76L258.598 1498.78L263.002 1507.75ZM211.977 1548.57L219.569 1555.08L219.602 1555.04L219.634 1555.01L211.977 1548.57ZM175.453 1613.03L166.063 1609.59L166.041 1609.65L166.021 1609.71L175.453 1613.03ZM39.8965 1690.37C39.8965 1651.32 45.9951 1615.45 58.0787 1582.65L39.3119 1575.73C26.3304 1610.97 19.8965 1649.21 19.8965 1690.37H39.8965ZM58.0586 1582.7C70.5493 1549.39 87.6514 1520.78 109.302 1496.72L94.4362 1483.34C70.9697 1509.41 52.6226 1540.24 39.332 1575.68L58.0586 1582.7ZM109.249 1496.78C131.239 1472.73 157.152 1454.02 187.063 1440.61L178.882 1422.36C146.489 1436.88 118.333 1457.2 94.4889 1483.28L109.249 1496.78ZM187.111 1440.59C217.225 1426.9 250.176 1420 286.098 1420V1400C247.541 1400 211.741 1407.42 178.835 1422.38L187.111 1440.59ZM286.098 1420C320.979 1420 352.678 1426.55 381.341 1439.52L389.585 1421.3C358.092 1407.05 323.547 1400 286.098 1400V1420ZM381.432 1439.56C410.231 1452.25 435.227 1470.22 456.491 1493.54L471.27 1480.07C448.133 1454.69 420.851 1435.07 389.494 1421.26L381.432 1439.56ZM456.491 1493.54C477.778 1516.89 494.886 1544.99 507.736 1577.98L526.373 1570.73C512.726 1535.69 494.384 1505.42 471.27 1480.07L456.491 1493.54ZM507.736 1577.98C520.563 1610.92 528.254 1647.48 530.706 1687.76L550.669 1686.54C548.108 1644.46 540.043 1605.83 526.373 1570.73L507.736 1577.98ZM530.704 1687.72C533.151 1730.72 528.588 1769.36 517.226 1803.79L536.219 1810.06C548.49 1772.87 553.237 1731.67 550.671 1686.58L530.704 1687.72ZM517.207 1803.85C506.136 1838.1 489.788 1867.09 468.264 1891.01L483.13 1904.38C506.724 1878.17 524.393 1846.65 536.238 1810L517.207 1803.85ZM468.312 1890.95C446.734 1914.59 420.875 1932.93 390.629 1945.99L398.558 1964.35C431.334 1950.19 459.544 1930.22 483.082 1904.44L468.312 1890.95ZM390.591 1946C360.793 1959.02 328.33 1965.58 293.08 1965.58V1985.58C330.877 1985.58 366.09 1978.53 398.596 1964.33L390.591 1946ZM293.08 1965.58C259.21 1965.58 226.974 1959.53 196.3 1947.47L188.981 1966.08C222.044 1979.09 256.768 1985.58 293.08 1985.58V1965.58ZM196.427 1947.52C166.16 1935.14 139.344 1917.27 115.923 1893.85L101.78 1907.99C127.057 1933.27 156.1 1952.63 188.854 1966.03L196.427 1947.52ZM115.975 1893.9C92.9952 1870.58 74.5226 1841.99 60.6393 1807.98L42.1224 1815.54C56.885 1851.71 76.7262 1882.56 101.728 1907.94L115.975 1893.9ZM60.6527 1808.01C46.8926 1773.96 39.8965 1734.8 39.8965 1690.37H19.8965C19.8965 1736.89 27.2233 1778.66 42.1091 1815.5L60.6527 1808.01ZM152.025 1699.5C152.025 1731.96 156.636 1761.57 166.021 1788.22L184.885 1781.58C176.367 1757.39 172.025 1730.07 172.025 1699.5H152.025ZM166.021 1788.22C175.312 1814.61 187.861 1837.37 203.782 1856.32L219.097 1843.46C204.94 1826.61 193.498 1806.04 184.885 1781.58L166.021 1788.22ZM203.847 1856.4C219.721 1874.92 238.155 1889.39 259.132 1899.69L267.946 1881.74C249.535 1872.7 233.236 1859.96 219.032 1843.38L203.847 1856.4ZM259.132 1899.69C280.191 1910.03 302.466 1915.21 325.844 1915.21V1895.21C305.536 1895.21 286.275 1890.73 267.946 1881.74L259.132 1899.69ZM325.844 1915.21C349.161 1915.21 371.083 1910.23 391.478 1900.23L382.67 1882.27C365.109 1890.89 346.212 1895.21 325.844 1895.21V1915.21ZM391.613 1900.16C411.885 1889.83 429.44 1875.5 444.249 1857.27L428.727 1844.66C415.607 1860.81 400.219 1873.33 382.535 1882.34L391.613 1900.16ZM444.313 1857.19C459.123 1838.59 470.571 1816.54 478.766 1791.2L459.738 1785.05C452.178 1808.41 441.783 1828.26 428.664 1844.74L444.313 1857.19ZM478.766 1791.2C487.013 1765.71 491.068 1737.62 491.068 1707.02H471.068C471.068 1735.86 467.246 1761.84 459.738 1785.05L478.766 1791.2ZM491.068 1707.02C491.068 1676.76 487.007 1648.19 478.815 1621.38L459.688 1627.23C467.252 1651.98 471.068 1678.56 471.068 1707.02H491.068ZM478.827 1621.42C470.661 1594.33 459.081 1570.52 443.987 1550.14L427.916 1562.05C441.467 1580.34 452.088 1602.01 459.677 1627.19L478.827 1621.42ZM444.058 1550.24C429.321 1529.83 411.63 1513.62 390.979 1501.77L381.021 1519.11C399.042 1529.46 414.652 1543.68 427.844 1561.95L444.058 1550.24ZM390.979 1501.77C370.084 1489.77 347.234 1483.79 322.621 1483.79V1503.79C343.842 1503.79 363.244 1508.91 381.021 1519.11L390.979 1501.77ZM322.621 1483.79C300.632 1483.79 279.282 1488.82 258.664 1498.74L267.34 1516.76C285.394 1508.07 303.79 1503.79 322.621 1503.79V1483.79ZM258.598 1498.78C238.243 1508.76 220.158 1523.29 204.32 1542.14L219.634 1555.01C233.873 1538.05 249.805 1525.37 267.406 1516.73L258.598 1498.78ZM204.384 1542.07C188.446 1560.66 175.715 1583.23 166.063 1609.59L184.843 1616.47C193.811 1591.98 205.429 1571.58 219.569 1555.08L204.384 1542.07ZM166.021 1609.71C156.628 1636.38 152.025 1666.36 152.025 1699.5H172.025C172.025 1668.19 176.375 1640.52 184.885 1616.35L166.021 1609.71ZM650.258 1624.31L640.477 1622.23L640.468 1622.27L640.46 1622.3L650.258 1624.31ZM673.354 1531.92L682.945 1534.75L686.99 1521.04L672.719 1521.94L673.354 1531.92ZM580.434 1537.83L573.058 1531.08L556.296 1549.39L581.068 1547.81L580.434 1537.83ZM842.543 1251.55L852.076 1254.57L835.167 1244.8L842.543 1251.55ZM792.055 1428.8L782.342 1426.42L779.561 1437.77L791.209 1438.76L792.055 1428.8ZM1000.99 1446.52L1010.19 1450.43L1015.59 1437.73L1001.84 1436.56L1000.99 1446.52ZM973.598 1510.98L974.312 1520.95L980.41 1520.51L982.801 1514.89L973.598 1510.98ZM771.107 1525.48L770.393 1515.5L762.733 1516.05L761.286 1523.6L771.107 1525.48ZM759.291 1595.3L749.388 1593.91L749.378 1593.99L749.368 1594.06L759.291 1595.3ZM752.846 1646.33L742.927 1645.06L742.915 1645.15L742.904 1645.25L752.846 1646.33ZM749.086 1689.3L739.103 1688.71L739.086 1689V1689.3H749.086ZM775.404 1859.56L766.246 1863.58L766.289 1863.67L766.334 1863.77L775.404 1859.56ZM810.316 1906.29L804.094 1914.12L804.204 1914.2L804.316 1914.29L810.316 1906.29ZM906.996 1911.66L912.066 1920.28L912.104 1920.26L912.141 1920.24L906.996 1911.66ZM937.074 1883.19L945.435 1888.68L945.473 1888.62L945.511 1888.56L937.074 1883.19ZM953.188 1843.98L962.944 1846.18L962.949 1846.15L962.955 1846.13L953.188 1843.98ZM954.799 1761.81L959.354 1752.9L941.567 1743.8L944.943 1763.5L954.799 1761.81ZM989.711 1799.94L980.588 1804.04L980.639 1804.15L980.693 1804.26L989.711 1799.94ZM991.322 1912.2L982.184 1908.14L982.146 1908.22L982.11 1908.31L991.322 1912.2ZM962.855 1953.02L969.472 1960.52L969.533 1960.46L969.593 1960.41L962.855 1953.02ZM825.893 1982.56L824.286 1992.43L824.304 1992.43L824.321 1992.43L825.893 1982.56ZM777.553 1968.59L781.301 1959.32L781.215 1959.29L781.129 1959.26L777.553 1968.59ZM651.869 1823.04L642.245 1825.75L642.265 1825.83L642.287 1825.9L651.869 1823.04ZM650.053 1724.75C650.053 1691.77 653.385 1658.96 660.055 1626.31L640.46 1622.3C633.524 1656.26 630.053 1690.41 630.053 1724.75H650.053ZM660.039 1626.39C667.156 1592.94 674.794 1562.4 682.945 1534.75L663.762 1529.1C655.442 1557.31 647.682 1588.36 640.477 1622.23L660.039 1626.39ZM672.719 1521.94L579.799 1527.85L581.068 1547.81L673.988 1541.9L672.719 1521.94ZM587.809 1544.58L849.919 1258.31L835.167 1244.8L573.058 1531.08L587.809 1544.58ZM833.01 1248.53C812.192 1314.22 795.297 1373.52 782.342 1426.42L801.768 1431.18C814.594 1378.81 831.358 1319.94 852.076 1254.57L833.01 1248.53ZM791.209 1438.76L1000.14 1456.49L1001.84 1436.56L792.9 1418.83L791.209 1438.76ZM991.787 1442.61L964.394 1507.07L982.801 1514.89L1010.19 1450.43L991.787 1442.61ZM972.883 1501L770.393 1515.5L771.822 1535.45L974.312 1520.95L972.883 1501ZM761.286 1523.6C756.25 1549.85 752.281 1573.3 749.388 1593.91L769.194 1596.69C772.03 1576.49 775.938 1553.38 780.928 1527.36L761.286 1523.6ZM749.368 1594.06C746.863 1614.11 744.715 1631.11 742.927 1645.06L762.765 1647.6C764.557 1633.62 766.706 1616.6 769.214 1596.54L749.368 1594.06ZM742.904 1645.25C741.102 1661.83 739.832 1676.32 739.103 1688.71L759.069 1689.88C759.772 1677.92 761.009 1663.77 762.787 1647.41L742.904 1645.25ZM739.086 1689.3C739.086 1725.49 741.257 1758.22 745.642 1787.46L765.421 1784.49C761.212 1756.44 759.086 1724.72 759.086 1689.3H739.086ZM745.642 1787.46C750.033 1816.73 756.852 1842.16 766.246 1863.58L784.562 1855.54C776.052 1836.14 769.623 1812.51 765.421 1784.49L745.642 1787.46ZM766.334 1863.77C776.146 1884.9 788.655 1901.85 804.094 1914.12L816.539 1898.46C804.048 1888.53 793.283 1874.32 784.474 1855.35L766.334 1863.77ZM804.316 1914.29C820.544 1926.46 839.712 1932.4 861.342 1932.4V1912.4C843.583 1912.4 828.734 1907.6 816.316 1898.29L804.316 1914.29ZM861.342 1932.4C880.875 1932.4 897.967 1928.57 912.066 1920.28L901.926 1903.04C891.676 1909.07 878.332 1912.4 861.342 1912.4V1932.4ZM912.141 1920.24C925.877 1911.99 937.035 1901.48 945.435 1888.68L928.714 1877.71C922.074 1887.82 913.181 1896.29 901.851 1903.09L912.141 1920.24ZM945.511 1888.56C953.68 1875.73 959.48 1861.57 962.944 1846.18L943.431 1841.79C940.45 1855.04 935.508 1867.03 928.638 1877.82L945.511 1888.56ZM962.955 1846.13C966.325 1830.78 968.021 1815.56 968.021 1800.48H948.021C948.021 1814.05 946.496 1827.83 943.42 1841.84L962.955 1846.13ZM968.021 1800.48C968.021 1786.69 966.903 1773.23 964.655 1760.12L944.943 1763.5C946.991 1775.45 948.021 1787.77 948.021 1800.48H968.021ZM950.244 1770.71C963.388 1777.43 973.532 1788.32 980.588 1804.04L998.834 1795.85C990.135 1776.47 977.004 1761.93 959.354 1752.9L950.244 1770.71ZM980.693 1804.26C988.237 1820.01 992.064 1837.32 992.064 1856.34H1012.06C1012.06 1834.54 1007.66 1814.25 998.729 1795.62L980.693 1804.26ZM992.064 1856.34C992.064 1876.34 988.676 1893.53 982.184 1908.14L1000.46 1916.26C1008.29 1898.64 1012.06 1878.59 1012.06 1856.34H992.064ZM982.11 1908.31C975.833 1923.17 967.159 1935.56 956.118 1945.63L969.593 1960.41C982.901 1948.27 993.204 1933.45 1000.53 1916.09L982.11 1908.31ZM956.239 1945.52C945.109 1955.34 931.938 1962.95 916.602 1968.28L923.172 1987.17C940.778 1981.05 956.253 1972.18 969.472 1960.52L956.239 1945.52ZM916.602 1968.28C901.276 1973.61 884.671 1976.32 866.713 1976.32V1996.32C886.711 1996.32 905.555 1993.3 923.172 1987.17L916.602 1968.28ZM866.713 1976.32C855.94 1976.32 842.885 1975.14 827.464 1972.68L824.321 1992.43C840.411 1994.99 854.569 1996.32 866.713 1996.32V1976.32ZM827.499 1972.69C812.944 1970.32 797.55 1965.89 781.301 1959.32L773.805 1977.86C791.214 1984.9 808.047 1989.79 824.286 1992.43L827.499 1972.69ZM781.129 1959.26C765.25 1953.17 749.387 1944.33 733.545 1932.62L721.658 1948.71C738.759 1961.35 756.197 1971.12 773.976 1977.93L781.129 1959.26ZM733.545 1932.62C718.121 1921.22 704.213 1906.35 691.879 1887.85L675.238 1898.95C688.685 1919.12 704.139 1935.76 721.658 1948.71L733.545 1932.62ZM691.879 1887.85C679.653 1869.51 669.467 1847.01 661.451 1820.18L642.287 1825.9C650.743 1854.21 661.683 1878.61 675.238 1898.95L691.879 1887.85ZM661.494 1820.32C653.926 1793.49 650.053 1761.68 650.053 1724.75H630.053C630.053 1763.01 634.057 1796.72 642.245 1825.75L661.494 1820.32ZM1055.24 1579.19L1045.87 1575.68L1045.86 1575.71L1045.85 1575.73L1055.24 1579.19ZM1108.41 1490.03L1101.03 1483.28L1101.01 1483.31L1100.98 1483.34L1108.41 1490.03ZM1189.52 1431.48L1193.61 1440.61L1193.63 1440.6L1193.65 1440.59L1189.52 1431.48ZM1392.01 1430.41L1387.88 1439.52L1387.93 1439.54L1387.97 1439.56L1392.01 1430.41ZM1547.23 1687.15L1557.21 1686.58L1557.21 1686.56L1557.21 1686.54L1547.23 1687.15ZM1533.27 1806.92L1523.77 1803.79L1523.76 1803.82L1523.75 1803.85L1533.27 1806.92ZM1482.24 1897.7L1489.63 1904.44L1489.65 1904.41L1489.67 1904.38L1482.24 1897.7ZM1401.14 1955.17L1397.17 1945.99L1397.15 1945.99L1397.13 1946L1401.14 1955.17ZM1199.18 1956.78L1195.4 1966.03L1195.46 1966.06L1195.52 1966.08L1199.18 1956.78ZM1115.39 1900.92L1108.27 1907.94L1108.3 1907.96L1108.32 1907.99L1115.39 1900.92ZM1057.92 1811.76L1048.65 1815.5L1048.66 1815.52L1048.67 1815.54L1057.92 1811.76ZM1217.98 1849.89L1210.33 1856.32L1210.36 1856.36L1210.39 1856.4L1217.98 1849.89ZM1270.08 1890.71L1274.49 1881.74L1270.08 1890.71ZM1393.62 1891.25L1398.02 1900.23L1398.09 1900.19L1398.16 1900.16L1393.62 1891.25ZM1443.03 1850.97L1450.79 1857.27L1450.82 1857.23L1450.86 1857.19L1443.03 1850.97ZM1475.79 1624.31L1466.22 1627.19L1466.23 1627.21L1466.23 1627.23L1475.79 1624.31ZM1442.49 1556.09L1434.39 1561.95L1434.42 1562L1434.46 1562.05L1442.49 1556.09ZM1269.54 1507.75L1265.21 1498.74L1265.17 1498.76L1265.14 1498.78L1269.54 1507.75ZM1218.52 1548.57L1226.11 1555.08L1226.14 1555.04L1226.18 1555.01L1218.52 1548.57ZM1182 1613.03L1172.61 1609.59L1172.58 1609.65L1172.56 1609.71L1182 1613.03ZM1418.32 1380.46L1413.11 1388.99L1426.54 1374.76L1418.32 1380.46ZM1299.62 1307.95L1304.84 1299.42L1299.7 1296.28L1294.52 1299.35L1299.62 1307.95ZM1179.31 1379.38L1171.07 1373.71L1184.42 1387.98L1179.31 1379.38ZM1298.01 1206.97L1306.23 1201.27L1297.98 1189.38L1289.78 1201.3L1298.01 1206.97ZM1046.44 1690.37C1046.44 1651.32 1052.54 1615.45 1064.62 1582.65L1045.85 1575.73C1032.87 1610.97 1026.44 1649.21 1026.44 1690.37H1046.44ZM1064.6 1582.7C1077.09 1549.39 1094.19 1520.78 1115.85 1496.72L1100.98 1483.34C1077.51 1509.41 1059.17 1540.24 1045.87 1575.68L1064.6 1582.7ZM1115.79 1496.78C1137.78 1472.73 1163.69 1454.02 1193.61 1440.61L1185.43 1422.36C1153.03 1436.88 1124.88 1457.2 1101.03 1483.28L1115.79 1496.78ZM1193.65 1440.59C1223.77 1426.9 1256.72 1420 1292.64 1420V1400C1254.08 1400 1218.28 1407.42 1185.38 1422.38L1193.65 1440.59ZM1292.64 1420C1327.52 1420 1359.22 1426.55 1387.88 1439.52L1396.13 1421.3C1364.63 1407.05 1330.09 1400 1292.64 1400V1420ZM1387.97 1439.56C1416.77 1452.25 1441.77 1470.22 1463.03 1493.54L1477.81 1480.07C1454.68 1454.69 1427.39 1435.07 1396.04 1421.26L1387.97 1439.56ZM1463.03 1493.54C1484.32 1516.89 1501.43 1544.99 1514.28 1577.98L1532.92 1570.73C1519.27 1535.69 1500.93 1505.42 1477.81 1480.07L1463.03 1493.54ZM1514.28 1577.98C1527.11 1610.92 1534.8 1647.48 1537.25 1687.76L1557.21 1686.54C1554.65 1644.46 1546.59 1605.83 1532.92 1570.73L1514.28 1577.98ZM1537.25 1687.72C1539.69 1730.72 1535.13 1769.36 1523.77 1803.79L1542.76 1810.06C1555.03 1772.87 1559.78 1731.67 1557.21 1686.58L1537.25 1687.72ZM1523.75 1803.85C1512.68 1838.1 1496.33 1867.09 1474.81 1891.01L1489.67 1904.38C1513.27 1878.17 1530.94 1846.65 1542.78 1810L1523.75 1803.85ZM1474.86 1890.95C1453.28 1914.59 1427.42 1932.93 1397.17 1945.99L1405.1 1964.35C1437.88 1950.19 1466.09 1930.22 1489.63 1904.44L1474.86 1890.95ZM1397.13 1946C1367.34 1959.02 1334.87 1965.58 1299.62 1965.58V1985.58C1337.42 1985.58 1372.63 1978.53 1405.14 1964.33L1397.13 1946ZM1299.62 1965.58C1265.75 1965.58 1233.52 1959.53 1202.84 1947.47L1195.52 1966.08C1228.59 1979.09 1263.31 1985.58 1299.62 1985.58V1965.58ZM1202.97 1947.52C1172.7 1935.14 1145.89 1917.27 1122.47 1893.85L1108.32 1907.99C1133.6 1933.27 1162.64 1952.63 1195.4 1966.03L1202.97 1947.52ZM1122.52 1893.9C1099.54 1870.58 1081.07 1841.99 1067.18 1807.98L1048.67 1815.54C1063.43 1851.71 1083.27 1882.56 1108.27 1907.94L1122.52 1893.9ZM1067.2 1808.01C1053.44 1773.96 1046.44 1734.8 1046.44 1690.37H1026.44C1026.44 1736.89 1033.77 1778.66 1048.65 1815.5L1067.2 1808.01ZM1158.57 1699.5C1158.57 1731.96 1163.18 1761.57 1172.56 1788.22L1191.43 1781.58C1182.91 1757.39 1178.57 1730.07 1178.57 1699.5H1158.57ZM1172.56 1788.22C1181.86 1814.61 1194.4 1837.37 1210.33 1856.32L1225.64 1843.46C1211.48 1826.61 1200.04 1806.04 1191.43 1781.58L1172.56 1788.22ZM1210.39 1856.4C1226.26 1874.92 1244.7 1889.39 1265.68 1899.69L1274.49 1881.74C1256.08 1872.7 1239.78 1859.96 1225.57 1843.38L1210.39 1856.4ZM1265.68 1899.69C1286.73 1910.03 1309.01 1915.21 1332.39 1915.21V1895.21C1312.08 1895.21 1292.82 1890.73 1274.49 1881.74L1265.68 1899.69ZM1332.39 1915.21C1355.7 1915.21 1377.63 1910.23 1398.02 1900.23L1389.21 1882.27C1371.65 1890.89 1352.75 1895.21 1332.39 1895.21V1915.21ZM1398.16 1900.16C1418.43 1889.83 1435.98 1875.5 1450.79 1857.27L1435.27 1844.66C1422.15 1860.81 1406.76 1873.33 1389.08 1882.34L1398.16 1900.16ZM1450.86 1857.19C1465.67 1838.59 1477.11 1816.54 1485.31 1791.2L1466.28 1785.05C1458.72 1808.41 1448.33 1828.26 1435.21 1844.74L1450.86 1857.19ZM1485.31 1791.2C1493.56 1765.71 1497.61 1737.62 1497.61 1707.02H1477.61C1477.61 1735.86 1473.79 1761.84 1466.28 1785.05L1485.31 1791.2ZM1497.61 1707.02C1497.61 1676.76 1493.55 1648.19 1485.36 1621.38L1466.23 1627.23C1473.8 1651.98 1477.61 1678.56 1477.61 1707.02H1497.61ZM1485.37 1621.42C1477.2 1594.33 1465.62 1570.52 1450.53 1550.14L1434.46 1562.05C1448.01 1580.34 1458.63 1602.01 1466.22 1627.19L1485.37 1621.42ZM1450.6 1550.24C1435.86 1529.83 1418.17 1513.62 1397.52 1501.77L1387.56 1519.11C1405.58 1529.46 1421.19 1543.68 1434.39 1561.95L1450.6 1550.24ZM1397.52 1501.77C1376.63 1489.77 1353.78 1483.79 1329.16 1483.79V1503.79C1350.38 1503.79 1369.79 1508.91 1387.56 1519.11L1397.52 1501.77ZM1329.16 1483.79C1307.17 1483.79 1285.82 1488.82 1265.21 1498.74L1273.88 1516.76C1291.94 1508.07 1310.33 1503.79 1329.16 1503.79V1483.79ZM1265.14 1498.78C1244.79 1508.76 1226.7 1523.29 1210.86 1542.14L1226.18 1555.01C1240.42 1538.05 1256.35 1525.37 1273.95 1516.73L1265.14 1498.78ZM1210.93 1542.07C1194.99 1560.66 1182.26 1583.23 1172.61 1609.59L1191.39 1616.47C1200.35 1591.98 1211.97 1571.58 1226.11 1555.08L1210.93 1542.07ZM1172.56 1609.71C1163.17 1636.38 1158.57 1666.36 1158.57 1699.5H1178.57C1178.57 1668.19 1182.92 1640.52 1191.43 1616.35L1172.56 1609.71ZM1423.54 1371.93L1304.84 1299.42L1294.41 1316.48L1413.11 1388.99L1423.54 1371.93ZM1294.52 1299.35L1174.21 1370.79L1184.42 1387.98L1304.73 1316.55L1294.52 1299.35ZM1187.55 1385.06L1306.25 1212.64L1289.78 1201.3L1171.07 1373.71L1187.55 1385.06ZM1289.79 1212.67L1410.11 1386.16L1426.54 1374.76L1306.23 1201.27L1289.79 1212.67ZM1733.61 1902.53L1725.29 1908.08L1725.37 1908.2L1725.46 1908.32L1733.61 1902.53ZM1711.59 1857.95L1721.05 1854.72L1712.7 1830.23L1702.41 1853.97L1711.59 1857.95ZM1657.34 1983.1L1647.34 1983.42L1666.51 1987.07L1657.34 1983.1ZM1636.39 1341.79L1646.39 1341.46L1646.17 1334.87L1640.03 1332.47L1636.39 1341.79ZM1501.58 1289.15L1500.45 1279.21L1497.94 1298.47L1501.58 1289.15ZM1786.24 1256.92L1796.15 1258.28L1797.9 1245.54L1785.12 1246.99L1786.24 1256.92ZM1767.98 1397.11L1777.91 1398.33L1777.91 1398.32L1767.98 1397.11ZM1755.63 1506.68L1745.68 1505.68L1763.95 1512.23L1755.63 1506.68ZM1825.99 1436.32L1831.44 1444.71L1831.45 1444.7L1831.46 1444.69L1825.99 1436.32ZM2041.37 1445.45L2035.03 1453.18L2035.14 1453.27L2035.25 1453.35L2041.37 1445.45ZM2076.28 1485.2L2067.64 1490.22L2067.71 1490.34L2067.78 1490.46L2076.28 1485.2ZM2096.69 1774.7L2087.02 1772.15L2087.01 1772.18L2087.01 1772.21L2096.69 1774.7ZM2049.96 1879.43L2041.8 1873.66L2041.78 1873.69L2041.75 1873.73L2049.96 1879.43ZM1972.62 1948.18L1977.26 1957.04L1977.28 1957.03L1977.3 1957.02L1972.62 1948.18ZM1794.3 1533.54L1786.72 1527.01L1786.67 1527.07L1786.62 1527.13L1794.3 1533.54ZM1765.3 1578.65L1756.35 1574.18L1756.33 1574.22L1756.31 1574.26L1765.3 1578.65ZM1744.35 1632.36L1734.78 1629.47L1734.45 1630.55L1734.37 1631.68L1744.35 1632.36ZM1742.74 1659.22L1752.73 1659.72L1752.73 1659.71L1752.73 1659.69L1742.74 1659.22ZM1742.2 1677.48L1752.18 1678.07L1752.2 1677.77V1677.48H1742.2ZM1742.2 1692.52H1752.2V1692.07L1752.16 1691.61L1742.2 1692.52ZM1751.33 1795.64L1741.57 1797.83L1751.33 1795.64ZM1776.04 1861.17L1767.58 1866.5L1767.61 1866.55L1767.63 1866.59L1776.04 1861.17ZM1812.03 1895.55L1807.55 1904.49L1807.69 1904.56L1807.83 1904.63L1812.03 1895.55ZM1944.69 1838.61L1936.18 1833.36L1936.15 1833.42L1936.12 1833.47L1944.69 1838.61ZM1976.92 1760.73L1967.29 1758.02L1967.28 1758.07L1967.27 1758.12L1976.92 1760.73ZM1953.82 1534.07L1945.9 1540.17L1945.94 1540.23L1945.99 1540.29L1953.82 1534.07ZM1865.2 1962.35C1846.93 1962.35 1830.21 1959.48 1814.95 1953.84L1808.02 1972.6C1825.71 1979.14 1844.8 1982.35 1865.2 1982.35V1962.35ZM1814.95 1953.84C1799.44 1948.11 1785.72 1940.39 1773.72 1930.73L1761.17 1946.3C1774.96 1957.41 1790.6 1966.16 1808.02 1972.6L1814.95 1953.84ZM1773.72 1930.73C1761.55 1920.92 1750.9 1909.6 1741.76 1896.74L1725.46 1908.32C1735.65 1922.67 1747.56 1935.34 1761.17 1946.3L1773.72 1930.73ZM1741.93 1896.98C1733.09 1883.73 1726.14 1869.65 1721.05 1854.72L1702.12 1861.18C1707.77 1877.76 1715.5 1893.4 1725.29 1908.08L1741.93 1896.98ZM1702.41 1853.97L1648.16 1979.12L1666.51 1987.07L1720.76 1861.93L1702.41 1853.97ZM1667.33 1982.77L1646.39 1341.46L1626.4 1342.11L1647.34 1983.42L1667.33 1982.77ZM1640.03 1332.47L1505.21 1279.84L1497.94 1298.47L1632.75 1351.1L1640.03 1332.47ZM1502.7 1299.09L1787.37 1266.86L1785.12 1246.99L1500.45 1279.21L1502.7 1299.09ZM1776.34 1255.57C1769.17 1307.88 1763.08 1354.66 1758.06 1395.9L1777.91 1398.32C1782.91 1357.2 1789 1310.52 1796.15 1258.28L1776.34 1255.57ZM1758.06 1395.89C1753.04 1436.77 1748.91 1473.37 1745.68 1505.68L1765.58 1507.67C1768.79 1475.54 1772.9 1439.09 1777.91 1398.33L1758.06 1395.89ZM1763.95 1512.23C1782.58 1484.29 1805.07 1461.82 1831.44 1444.71L1820.54 1427.93C1791.76 1446.62 1767.35 1471.07 1747.31 1501.13L1763.95 1512.23ZM1831.46 1444.69C1857.65 1427.57 1887.58 1418.93 1921.6 1418.93V1398.93C1883.99 1398.93 1850.19 1408.54 1820.52 1427.95L1831.46 1444.69ZM1921.6 1418.93C1947.32 1418.93 1969.32 1422.06 1987.77 1428.1L1993.99 1409.09C1973.06 1402.24 1948.87 1398.93 1921.6 1398.93V1418.93ZM1987.77 1428.1C2006.46 1434.21 2022.15 1442.61 2035.03 1453.18L2047.71 1437.72C2032.66 1425.37 2014.69 1415.86 1993.99 1409.09L1987.77 1428.1ZM2035.25 1453.35C2048.57 1463.68 2059.34 1475.96 2067.64 1490.22L2084.93 1480.17C2075.32 1463.64 2062.82 1449.42 2047.5 1437.55L2035.25 1453.35ZM2067.78 1490.46C2076.64 1504.77 2083.63 1520.12 2088.76 1536.52L2107.85 1530.55C2102.23 1512.58 2094.55 1495.7 2084.79 1479.93L2067.78 1490.46ZM2088.76 1536.52C2093.94 1553.1 2097.57 1570.22 2099.65 1587.88L2119.52 1585.54C2117.3 1566.68 2113.41 1548.34 2107.85 1530.55L2088.76 1536.52ZM2099.65 1587.88C2101.76 1605.76 2102.81 1623.45 2102.81 1640.96H2122.81C2122.81 1622.65 2121.71 1604.18 2119.52 1585.54L2099.65 1587.88ZM2102.81 1640.96C2102.81 1688.56 2097.52 1732.27 2087.02 1772.15L2106.36 1777.24C2117.35 1735.48 2122.81 1690.03 2122.81 1640.96H2102.81ZM2087.01 1772.21C2076.88 1811.68 2061.76 1845.44 2041.8 1873.66L2058.13 1885.21C2079.7 1854.71 2095.74 1818.64 2106.38 1777.18L2087.01 1772.21ZM2041.75 1873.73C2022.24 1901.8 1997.67 1923.63 1967.95 1939.34L1977.3 1957.02C2009.88 1939.79 2036.87 1915.79 2058.18 1885.14L2041.75 1873.73ZM1967.98 1939.32C1938.85 1954.57 1904.69 1962.35 1865.2 1962.35V1982.35C1907.35 1982.35 1944.8 1974.03 1977.26 1957.04L1967.98 1939.32ZM1873.26 1481.64C1856.46 1481.64 1840.62 1485.86 1825.89 1494.22L1835.76 1511.62C1847.52 1504.94 1859.97 1501.64 1873.26 1501.64V1481.64ZM1825.89 1494.22C1811.53 1502.37 1798.49 1513.35 1786.72 1527.01L1801.88 1540.06C1812.32 1527.94 1823.62 1518.51 1835.76 1511.62L1825.89 1494.22ZM1786.62 1527.13C1775.32 1540.69 1765.24 1556.4 1756.35 1574.18L1774.24 1583.12C1782.54 1566.53 1791.8 1552.16 1801.98 1539.94L1786.62 1527.13ZM1756.31 1574.26C1747.83 1591.6 1740.65 1610.01 1734.78 1629.47L1753.92 1635.25C1759.5 1616.76 1766.29 1599.37 1774.28 1583.05L1756.31 1574.26ZM1734.37 1631.68C1733.65 1642.11 1733.11 1651.13 1732.75 1658.74L1752.73 1659.69C1753.08 1652.27 1753.61 1643.39 1754.33 1633.05L1734.37 1631.68ZM1732.75 1658.72C1732.39 1665.98 1732.2 1672.25 1732.2 1677.48H1752.2C1752.2 1672.69 1752.37 1666.78 1752.73 1659.72L1732.75 1658.72ZM1732.22 1676.89C1731.84 1683.24 1731.82 1688.8 1732.24 1693.42L1752.16 1691.61C1751.86 1688.36 1751.84 1683.89 1752.18 1678.07L1732.22 1676.89ZM1732.2 1692.52C1732.2 1734.47 1735.27 1769.64 1741.57 1797.83L1761.09 1793.46C1755.22 1767.22 1752.2 1733.64 1752.2 1692.52H1732.2ZM1741.57 1797.83C1747.81 1825.72 1756.38 1848.75 1767.58 1866.5L1784.5 1855.84C1774.93 1840.66 1767.03 1820 1761.09 1793.46L1741.57 1797.83ZM1767.63 1866.59C1778.74 1883.82 1791.98 1896.7 1807.55 1904.49L1816.5 1886.6C1804.86 1880.78 1794.11 1870.75 1784.44 1855.75L1767.63 1866.59ZM1807.83 1904.63C1823.08 1911.66 1839.01 1915.21 1855.53 1915.21V1895.21C1841.97 1895.21 1828.9 1892.32 1816.22 1886.47L1807.83 1904.63ZM1855.53 1915.21C1873.23 1915.21 1890.64 1908.45 1907.6 1896.11L1895.84 1879.94C1881.29 1890.52 1867.91 1895.21 1855.53 1895.21V1915.21ZM1907.6 1896.11C1924.71 1883.68 1939.87 1866.08 1953.27 1843.76L1936.12 1833.47C1923.73 1854.12 1910.25 1869.46 1895.84 1879.94L1907.6 1896.11ZM1953.2 1843.86C1967.06 1821.38 1978.14 1794.49 1986.57 1763.34L1967.27 1758.12C1959.22 1787.85 1948.82 1812.87 1936.18 1833.36L1953.2 1843.86ZM1986.54 1763.45C1995.43 1731.97 1999.81 1696.65 1999.81 1657.61H1979.81C1979.81 1695.19 1975.59 1728.63 1967.29 1758.02L1986.54 1763.45ZM1999.81 1657.61C1999.81 1629.97 1996.49 1605.13 1989.69 1583.21L1970.59 1589.14C1976.68 1608.75 1979.81 1631.53 1979.81 1657.61H1999.81ZM1989.69 1583.21C1982.96 1561.51 1973.67 1542.97 1961.65 1527.85L1945.99 1540.29C1956.17 1553.1 1964.43 1569.3 1970.59 1589.14L1989.69 1583.21ZM1961.75 1527.98C1950.22 1512.98 1936.76 1501.4 1921.32 1493.48L1912.2 1511.28C1924.7 1517.69 1935.94 1527.23 1945.9 1540.17L1961.75 1527.98ZM1921.32 1493.48C1906.01 1485.63 1889.95 1481.64 1873.26 1481.64V1501.64C1886.64 1501.64 1899.58 1504.81 1912.2 1511.28L1921.32 1493.48ZM2642.93 1437.39L2652.92 1436.94L2652.49 1427.39H2642.93V1437.39ZM2663.88 1899.31L2653.89 1899.76L2654.17 1905.81L2659.65 1908.37L2663.88 1899.31ZM2760.56 1944.42L2762.38 1954.26L2793.08 1948.57L2764.79 1935.36L2760.56 1944.42ZM2540.35 1985.24L2530.37 1984.6L2529.54 1997.42L2542.17 1995.08L2540.35 1985.24ZM2550.55 1827.87L2560.53 1828.52L2541.52 1823.58L2550.55 1827.87ZM2516.18 1888.56L2524.45 1894.18L2524.47 1894.15L2524.5 1894.11L2516.18 1888.56ZM2472.67 1939.05L2479.31 1946.53L2479.36 1946.49L2479.4 1946.44L2472.67 1939.05ZM2419.5 1973.43L2415.43 1964.29L2415.4 1964.3L2415.37 1964.32L2419.5 1973.43ZM2237.42 1934.22L2229.71 1940.59L2229.74 1940.63L2229.78 1940.67L2237.42 1934.22ZM2206.26 1876.75L2196.7 1879.68L2196.73 1879.77L2196.76 1879.86L2206.26 1876.75ZM2215.93 1659.22L2206.26 1656.69L2206.24 1656.74L2206.23 1656.79L2215.93 1659.22ZM2238.49 1587.78L2229.16 1584.19L2229.14 1584.23L2229.13 1584.27L2238.49 1587.78ZM2267.49 1523.33L2276.34 1527.99L2282.39 1516.52L2269.76 1513.59L2267.49 1523.33ZM2154.16 1497.01L2150.94 1487.55L2117.82 1498.84L2151.9 1506.75L2154.16 1497.01ZM2366.86 1424.5L2376.22 1428.02L2383.68 1408.2L2363.63 1415.04L2366.86 1424.5ZM2335.17 1528.7L2325.42 1526.5L2325.41 1526.54L2325.4 1526.58L2335.17 1528.7ZM2319.06 1616.79L2309.15 1615.41L2309.15 1615.45L2309.14 1615.49L2319.06 1616.79ZM2311.54 1700.58L2301.55 1700.16L2301.54 1700.37V1700.58H2311.54ZM2318.52 1787.05L2308.7 1788.93L2308.7 1788.94L2308.7 1788.96L2318.52 1787.05ZM2337.86 1847.21L2328.95 1851.76L2328.97 1851.8L2328.99 1851.84L2337.86 1847.21ZM2367.4 1882.66L2361.73 1890.9L2361.82 1890.96L2361.91 1891.02L2367.4 1882.66ZM2504.36 1832.71L2496.09 1827.09L2496.08 1827.1L2496.06 1827.12L2504.36 1832.71ZM2537.12 1766.64L2527.75 1763.16L2527.73 1763.22L2527.71 1763.28L2537.12 1766.64ZM2559.68 1687.15L2549.91 1685.02L2549.9 1685.08L2549.89 1685.14L2559.68 1687.15ZM2577.94 1517.96L2587.94 1518.09L2588.01 1512.76L2583.63 1509.73L2577.94 1517.96ZM2461.39 1437.39V1427.39H2429.34L2455.7 1445.62L2461.39 1437.39ZM2632.94 1437.85L2653.89 1899.76L2673.87 1898.85L2652.92 1436.94L2632.94 1437.85ZM2659.65 1908.37L2756.33 1953.49L2764.79 1935.36L2668.11 1890.24L2659.65 1908.37ZM2758.74 1934.59L2538.52 1975.41L2542.17 1995.08L2762.38 1954.26L2758.74 1934.59ZM2550.32 1985.89L2560.53 1828.52L2540.57 1827.22L2530.37 1984.6L2550.32 1985.89ZM2541.52 1823.58C2531.7 1844.28 2520.48 1864.09 2507.86 1883.02L2524.5 1894.11C2537.66 1874.37 2549.35 1853.72 2559.59 1832.16L2541.52 1823.58ZM2507.9 1882.95C2495.43 1901.31 2481.44 1917.54 2465.94 1931.66L2479.4 1946.44C2496.13 1931.21 2511.14 1913.78 2524.45 1894.18L2507.9 1882.95ZM2466.03 1931.58C2450.67 1945.23 2433.81 1956.12 2415.43 1964.29L2423.56 1982.57C2443.85 1973.55 2462.45 1961.52 2479.31 1946.53L2466.03 1931.58ZM2415.37 1964.32C2397.77 1972.29 2378.6 1976.32 2357.73 1976.32V1996.32C2381.26 1996.32 2403.26 1991.76 2423.62 1982.54L2415.37 1964.32ZM2357.73 1976.32C2332.4 1976.32 2310.61 1971.87 2292.12 1963.28L2283.69 1981.42C2305.3 1991.46 2330.06 1996.32 2357.73 1996.32V1976.32ZM2292.12 1963.28C2273.32 1954.56 2257.68 1942.71 2245.06 1927.77L2229.78 1940.67C2244.37 1957.95 2262.39 1971.53 2283.69 1981.42L2292.12 1963.28ZM2245.13 1927.85C2232.37 1912.41 2222.57 1894.38 2215.77 1873.63L2196.76 1879.86C2204.28 1902.8 2215.25 1923.08 2229.71 1940.59L2245.13 1927.85ZM2215.82 1873.82C2209.33 1852.64 2206.06 1830 2206.06 1805.85H2186.06C2186.06 1831.83 2189.59 1856.46 2196.7 1879.68L2215.82 1873.82ZM2206.06 1805.85C2206.06 1783.09 2207.81 1759.39 2211.33 1734.75L2191.53 1731.93C2187.89 1757.42 2186.06 1782.06 2186.06 1805.85H2206.06ZM2211.33 1734.75C2214.86 1710.03 2219.63 1685.66 2225.63 1661.64L2206.23 1656.79C2200.06 1681.48 2195.16 1706.52 2191.53 1731.93L2211.33 1734.75ZM2225.61 1661.74C2231.97 1637.36 2239.39 1613.87 2247.85 1591.29L2229.13 1584.27C2220.41 1607.53 2212.78 1631.67 2206.26 1656.69L2225.61 1661.74ZM2247.82 1591.37C2256.65 1568.42 2266.16 1547.3 2276.34 1527.99L2258.65 1518.67C2248.06 1538.75 2238.23 1560.59 2229.16 1584.19L2247.82 1591.37ZM2269.76 1513.59L2156.43 1487.27L2151.9 1506.75L2265.23 1533.07L2269.76 1513.59ZM2157.39 1506.48L2370.09 1433.97L2363.63 1415.04L2150.94 1487.55L2157.39 1506.48ZM2357.5 1420.98C2343.75 1457.52 2333.05 1492.7 2325.42 1526.5L2344.92 1530.9C2352.33 1498.11 2362.75 1463.81 2376.22 1428.02L2357.5 1420.98ZM2325.4 1526.58C2318.2 1559.7 2312.78 1589.32 2309.15 1615.41L2328.96 1618.16C2332.5 1592.69 2337.82 1563.59 2344.94 1530.83L2325.4 1526.58ZM2309.14 1615.49C2305.17 1645.81 2302.63 1674.04 2301.55 1700.16L2321.53 1700.99C2322.59 1675.55 2325.07 1647.92 2328.97 1618.09L2309.14 1615.49ZM2301.54 1700.58C2301.54 1734.31 2303.89 1763.79 2308.7 1788.93L2328.34 1785.17C2323.84 1761.61 2321.54 1733.45 2321.54 1700.58H2301.54ZM2308.7 1788.96C2313.48 1813.57 2320.17 1834.58 2328.95 1851.76L2346.76 1842.66C2339.07 1827.61 2332.87 1808.52 2328.34 1785.15L2308.7 1788.96ZM2328.99 1851.84C2337.78 1868.65 2348.61 1881.87 2361.73 1890.9L2373.06 1874.42C2363.27 1867.68 2354.4 1857.28 2346.72 1842.57L2328.99 1851.84ZM2361.91 1891.02C2374.99 1899.6 2389.42 1903.94 2404.99 1903.94V1883.94C2393.35 1883.94 2382.72 1880.75 2372.88 1874.3L2361.91 1891.02ZM2404.99 1903.94C2427.66 1903.94 2448.24 1897.84 2466.44 1885.58L2455.26 1868.99C2440.52 1878.93 2423.87 1883.94 2404.99 1883.94V1903.94ZM2466.44 1885.58C2484.11 1873.67 2499.5 1857.84 2512.66 1838.29L2496.06 1827.12C2484.16 1844.81 2470.54 1858.7 2455.26 1868.99L2466.44 1885.58ZM2512.63 1838.32C2526.07 1818.54 2537.35 1795.74 2546.54 1770L2527.71 1763.28C2518.99 1787.67 2508.43 1808.91 2496.09 1827.09L2512.63 1838.32ZM2546.5 1770.12C2556 1744.55 2563.65 1717.56 2569.48 1689.16L2549.89 1685.14C2544.25 1712.6 2536.87 1738.6 2527.75 1763.16L2546.5 1770.12ZM2569.45 1689.28C2575.62 1660.96 2580.16 1632.11 2583.06 1602.73L2563.16 1600.77C2560.33 1629.39 2555.91 1657.47 2549.91 1685.02L2569.45 1689.28ZM2583.06 1602.73C2585.95 1573.47 2587.58 1545.25 2587.94 1518.09L2567.94 1517.83C2567.59 1544.37 2566 1572.02 2563.16 1600.77L2583.06 1602.73ZM2583.63 1509.73L2467.08 1429.17L2455.7 1445.62L2572.26 1526.18L2583.63 1509.73ZM2461.39 1447.39H2642.93V1427.39H2461.39V1447.39ZM3016.22 1416.98L3014.46 1426.83L3014.58 1426.85L3014.7 1426.87L3016.22 1416.98ZM3057.04 1427.19L3053.73 1436.62L3053.88 1436.68L3054.03 1436.72L3057.04 1427.19ZM3095.18 1443.3L3090.39 1452.08L3090.55 1452.17L3090.71 1452.25L3095.18 1443.3ZM3127.94 1463.71L3121.8 1471.6L3129.53 1477.62L3135.71 1470.01L3127.94 1463.71ZM3216.03 1355.21L3225.92 1356.68L3231.28 1320.57L3208.27 1348.91L3216.03 1355.21ZM3176.28 1623.23L3166.54 1625.48L3186.18 1624.7L3176.28 1623.23ZM3153.72 1568.45L3145.11 1573.52L3145.13 1573.55L3145.15 1573.59L3153.72 1568.45ZM3113.44 1519.57L3106.71 1526.97L3106.76 1527.01L3106.8 1527.04L3113.44 1519.57ZM3058.66 1485.2L3054.7 1494.38L3054.77 1494.41L3054.83 1494.44L3058.66 1485.2ZM2951.23 1476.6L2953.46 1486.35L2953.59 1486.32L2953.72 1486.29L2951.23 1476.6ZM2917.93 1491.1L2912.18 1482.93L2912.11 1482.98L2912.03 1483.03L2917.93 1491.1ZM2895.38 1516.88L2886.62 1512.05L2886.55 1512.17L2886.49 1512.29L2895.38 1516.88ZM2901.28 1595.84L2893.73 1602.39L2893.79 1602.46L2893.85 1602.53L2901.28 1595.84ZM2938.88 1623.23L2934.49 1632.22L2934.58 1632.26L2934.66 1632.3L2938.88 1623.23ZM2991.52 1642.03L2988.89 1651.68L2988.97 1651.7L2989.05 1651.72L2991.52 1642.03ZM3112.9 1678.55L3109.19 1687.84L3109.26 1687.87L3109.34 1687.9L3112.9 1678.55ZM3202.6 1753.75L3193.69 1758.29L3193.75 1758.4L3193.8 1758.5L3202.6 1753.75ZM3199.38 1896.62L3190.65 1891.74L3190.64 1891.76L3190.62 1891.79L3199.38 1896.62ZM3154.8 1948.18L3160.67 1956.28L3160.72 1956.24L3160.77 1956.2L3154.8 1948.18ZM2881.41 1942.81L2876.11 1951.29L2876.16 1951.32L2876.2 1951.35L2881.41 1942.81ZM2842.2 1913.81L2848.8 1906.3L2840.68 1899.16L2834.2 1907.81L2842.2 1913.81ZM2760.56 2022.84L2750.61 2021.9L2747.25 2057.3L2768.57 2028.84L2760.56 2022.84ZM2785.8 1756.44L2794.85 1752.18L2779.3 1719.12L2775.85 1755.49L2785.8 1756.44ZM2827.16 1824.65L2835.11 1818.58L2827.16 1824.65ZM2880.87 1879.97L2874.63 1887.78L2874.67 1887.81L2874.71 1887.85L2880.87 1879.97ZM2944.25 1916.49L2940.56 1925.79L2940.63 1925.81L2940.69 1925.84L2944.25 1916.49ZM3082.29 1911.66L3088.04 1919.84L3088.05 1919.83L3088.07 1919.82L3082.29 1911.66ZM3093.57 1824.65L3086.37 1831.58L3086.5 1831.72L3086.63 1831.85L3093.57 1824.65ZM3055.97 1799.4L3051.75 1808.47L3051.79 1808.49L3051.83 1808.51L3055.97 1799.4ZM3003.33 1780.07L3006.13 1770.47L3003.33 1780.07ZM2881.95 1737.64L2877.67 1746.68L2877.74 1746.71L2877.81 1746.74L2881.95 1737.64ZM2828.77 1703.26L2822.06 1710.67L2822.15 1710.75L2822.24 1710.83L2828.77 1703.26ZM2791.18 1652.77L2782.11 1656.98L2782.15 1657.08L2782.2 1657.18L2791.18 1652.77ZM2815.88 1471.77L2808.61 1464.91L2808.6 1464.91L2815.88 1471.77ZM2855.09 1441.69L2859.74 1450.54L2859.78 1450.52L2859.82 1450.5L2855.09 1441.69ZM2899.13 1423.96L2901.73 1433.62L2901.84 1433.59L2901.94 1433.56L2899.13 1423.96ZM2974.87 1423.22C2987.86 1423.22 3001.05 1424.42 3014.46 1426.83L3017.99 1407.14C3003.47 1404.53 2989.09 1403.22 2974.87 1403.22V1423.22ZM3014.7 1426.87C3028.06 1428.92 3041.07 1432.17 3053.73 1436.62L3060.36 1417.75C3046.52 1412.89 3032.32 1409.34 3017.75 1407.1L3014.7 1426.87ZM3054.03 1436.72C3067.06 1440.84 3079.17 1445.96 3090.39 1452.08L3099.97 1434.52C3087.55 1427.75 3074.24 1422.13 3060.06 1417.65L3054.03 1436.72ZM3090.71 1452.25C3102.36 1458.07 3112.71 1464.53 3121.8 1471.6L3134.08 1455.82C3123.84 1447.85 3112.35 1440.71 3099.65 1434.36L3090.71 1452.25ZM3135.71 1470.01L3223.79 1361.52L3208.27 1348.91L3120.18 1457.41L3135.71 1470.01ZM3206.14 1353.75L3166.39 1621.77L3186.18 1624.7L3225.92 1356.68L3206.14 1353.75ZM3186.03 1620.98C3181.47 1601.25 3173.53 1582.02 3162.3 1563.3L3145.15 1573.59C3155.4 1590.68 3162.5 1607.97 3166.54 1625.48L3186.03 1620.98ZM3162.34 1563.38C3151.06 1544.2 3136.96 1527.1 3120.09 1512.1L3106.8 1527.04C3122.14 1540.69 3134.9 1556.17 3145.11 1573.52L3162.34 1563.38ZM3120.17 1512.17C3103.51 1497.03 3084.25 1484.97 3062.48 1475.96L3054.83 1494.44C3074.59 1502.61 3091.86 1513.47 3106.71 1526.97L3120.17 1512.17ZM3062.61 1476.01C3040.48 1466.47 3016.38 1461.77 2990.44 1461.77V1481.77C3013.92 1481.77 3035.29 1486.01 3054.7 1494.38L3062.61 1476.01ZM2990.44 1461.77C2976.04 1461.77 2962.13 1463.47 2948.74 1466.92L2953.72 1486.29C2965.4 1483.28 2977.63 1481.77 2990.44 1481.77V1461.77ZM2949.01 1466.85C2935.32 1469.98 2923 1475.31 2912.18 1482.93L2923.69 1499.28C2932.2 1493.29 2942.09 1488.95 2953.46 1486.35L2949.01 1466.85ZM2912.03 1483.03C2901.51 1490.72 2893.03 1500.43 2886.62 1512.05L2904.13 1521.72C2909.18 1512.57 2915.73 1505.1 2923.83 1499.18L2912.03 1483.03ZM2886.49 1512.29C2880.24 1524.38 2877.32 1538.38 2877.32 1553.95H2897.32C2897.32 1540.87 2899.77 1530.16 2904.26 1521.48L2886.49 1512.29ZM2877.32 1553.95C2877.32 1573.01 2882.53 1589.47 2893.73 1602.39L2908.84 1589.29C2901.42 1580.73 2897.32 1569.25 2897.32 1553.95H2877.32ZM2893.85 1602.53C2904.52 1614.38 2918.15 1624.24 2934.49 1632.22L2943.27 1614.25C2928.81 1607.19 2917.38 1598.78 2908.72 1589.15L2893.85 1602.53ZM2934.66 1632.3C2950.66 1639.74 2968.75 1646.19 2988.89 1651.68L2994.15 1632.38C2974.89 1627.13 2957.89 1621.05 2943.1 1614.17L2934.66 1632.3ZM2989.05 1651.72C3008.68 1656.72 3028.84 1662.07 3049.55 1667.78L3054.87 1648.5C3034.04 1642.76 3013.75 1637.37 2993.98 1632.34L2989.05 1651.72ZM3049.55 1667.78C3069.97 1673.42 3089.85 1680.1 3109.19 1687.84L3116.62 1669.27C3096.57 1661.25 3075.99 1654.33 3054.87 1648.5L3049.55 1667.78ZM3109.34 1687.9C3128.15 1695.08 3144.8 1704.44 3159.34 1715.94L3171.74 1700.25C3155.49 1687.4 3137.04 1677.07 3116.47 1669.21L3109.34 1687.9ZM3159.34 1715.94C3173.56 1727.18 3185.01 1741.25 3193.69 1758.29L3211.51 1749.21C3201.58 1729.72 3188.32 1713.36 3171.74 1700.25L3159.34 1715.94ZM3193.8 1758.5C3202.48 1774.57 3207.1 1795.03 3207.1 1820.35H3227.1C3227.1 1792.68 3222.06 1768.74 3211.4 1749L3193.8 1758.5ZM3207.1 1820.35C3207.1 1848.75 3201.46 1872.41 3190.65 1891.74L3208.11 1901.5C3220.93 1878.58 3227.1 1851.39 3227.1 1820.35H3207.1ZM3190.62 1891.79C3179.82 1911.36 3165.89 1927.45 3148.82 1940.16L3160.77 1956.2C3180.23 1941.71 3196.02 1923.42 3208.13 1901.45L3190.62 1891.79ZM3148.93 1940.09C3131.66 1952.62 3112.53 1961.77 3091.46 1967.54L3096.75 1986.83C3120.09 1980.43 3141.42 1970.25 3160.67 1956.28L3148.93 1940.09ZM3091.46 1967.54C3070.05 1973.42 3049.27 1976.32 3029.12 1976.32V1996.32C3051.21 1996.32 3073.76 1993.13 3096.75 1986.83L3091.46 1967.54ZM3029.12 1976.32C3012.63 1976.32 2996.12 1974.6 2979.59 1971.16L2975.51 1990.74C2993.36 1994.45 3011.23 1996.32 3029.12 1996.32V1976.32ZM2979.59 1971.16C2962.97 1967.69 2946.88 1962.85 2931.32 1956.62L2923.89 1975.19C2940.55 1981.86 2957.76 1987.04 2975.51 1990.74L2979.59 1971.16ZM2931.32 1956.62C2915.71 1950.38 2900.82 1942.93 2886.62 1934.27L2876.2 1951.35C2891.37 1960.6 2907.26 1968.54 2923.89 1975.19L2931.32 1956.62ZM2886.71 1934.33C2872.81 1925.65 2860.18 1916.3 2848.8 1906.3L2835.6 1921.32C2847.85 1932.09 2861.36 1942.07 2876.11 1951.29L2886.71 1934.33ZM2834.2 1907.81L2752.56 2016.85L2768.57 2028.84L2850.21 1919.8L2834.2 1907.81ZM2770.52 2023.79L2795.76 1757.38L2775.85 1755.49L2750.61 2021.9L2770.52 2023.79ZM2776.76 1760.69C2788.51 1785.67 2802.66 1809.02 2819.21 1830.71L2835.11 1818.58C2819.43 1798.03 2806.01 1775.9 2794.85 1752.18L2776.76 1760.69ZM2819.21 1830.71C2835.79 1852.45 2854.26 1871.49 2874.63 1887.78L2887.12 1872.16C2868.1 1856.94 2850.76 1839.1 2835.11 1818.58L2819.21 1830.71ZM2874.71 1887.85C2895.14 1903.82 2917.09 1916.47 2940.56 1925.79L2947.94 1907.2C2926.3 1898.61 2906 1886.92 2887.03 1872.09L2874.71 1887.85ZM2940.69 1925.84C2964.4 1934.87 2989.06 1939.38 3014.61 1939.38V1919.38C2991.47 1919.38 2969.22 1915.31 2947.81 1907.15L2940.69 1925.84ZM3014.61 1939.38C3044.2 1939.38 3069 1933.21 3088.04 1919.84L3076.54 1903.48C3061.92 1913.74 3041.6 1919.38 3014.61 1919.38V1939.38ZM3088.07 1919.82C3108.07 1905.65 3118.07 1885.33 3118.07 1860.1H3098.07C3098.07 1879.26 3090.89 1893.32 3076.51 1903.5L3088.07 1919.82ZM3118.07 1860.1C3118.07 1843.26 3112.27 1828.78 3100.5 1817.45L3086.63 1831.85C3094.2 1839.14 3098.07 1848.29 3098.07 1860.1H3118.07ZM3100.77 1817.71C3090.37 1806.91 3076.7 1797.84 3060.11 1790.3L3051.83 1808.51C3066.76 1815.29 3078.14 1823.05 3086.37 1831.58L3100.77 1817.71ZM3060.19 1790.34C3044.25 1782.92 3026.21 1776.31 3006.13 1770.47L3000.54 1789.67C3019.84 1795.29 3036.9 1801.56 3051.75 1808.47L3060.19 1790.34ZM3006.13 1770.47C2986.55 1764.77 2966.42 1758.54 2945.75 1751.77L2939.53 1770.77C2960.39 1777.61 2980.73 1783.91 3000.54 1789.67L3006.13 1770.47ZM2945.75 1751.77C2925.33 1745.08 2905.44 1737.33 2886.09 1728.53L2877.81 1746.74C2897.84 1755.85 2918.41 1763.86 2939.53 1770.77L2945.75 1751.77ZM2886.22 1728.6C2867.31 1719.65 2850.35 1708.68 2835.31 1695.69L2822.24 1710.83C2838.71 1725.05 2857.2 1737 2877.67 1746.68L2886.22 1728.6ZM2835.49 1695.85C2821.08 1682.78 2809.3 1666.99 2800.15 1648.37L2782.2 1657.18C2792.39 1677.94 2805.67 1695.81 2822.06 1710.67L2835.49 1695.85ZM2800.25 1648.56C2791.69 1630.14 2787.21 1607.49 2787.21 1580.26H2767.21C2767.21 1609.61 2772.04 1635.3 2782.11 1656.98L2800.25 1648.56ZM2787.21 1580.26C2787.21 1556.87 2790.66 1537.06 2797.24 1520.6L2778.67 1513.17C2770.93 1532.52 2767.21 1554.96 2767.21 1580.26H2787.21ZM2797.24 1520.6C2804 1503.68 2812.69 1489.76 2823.16 1478.62L2808.6 1464.91C2796.16 1478.13 2786.22 1494.28 2778.67 1513.17L2797.24 1520.6ZM2823.16 1478.63C2834.27 1466.85 2846.46 1457.52 2859.74 1450.54L2850.44 1432.84C2835.08 1440.9 2821.13 1451.62 2808.61 1464.91L2823.16 1478.63ZM2859.82 1450.5C2873.89 1442.95 2887.85 1437.34 2901.73 1433.62L2896.54 1414.31C2881.05 1418.46 2865.66 1424.67 2850.36 1432.88L2859.82 1450.5ZM2901.94 1433.56C2916.14 1429.41 2929.52 1426.67 2942.1 1425.31L2939.95 1405.43C2926.04 1406.93 2911.49 1409.93 2896.33 1414.37L2901.94 1433.56ZM2942.1 1425.31C2955.13 1423.9 2966.03 1423.22 2974.87 1423.22V1403.22C2965.08 1403.22 2953.42 1403.97 2939.95 1405.43L2942.1 1425.31Z" fill="white"/>
</svg>
